<svg version="1.1" id="Layer_1" xmlns="http://www.w3.org/2000/svg" xmlns:xlink="http://www.w3.org/1999/xlink" x="0px" y="0px"
	 width="100%" viewBox="0 0 160 160" enable-background="new 0 0 160 160" xml:space="preserve">
<path fill="#121212" opacity="1.000000" stroke="none" 
	d="
M101.000000,161.000000 
	C67.333336,161.000000 34.166676,161.000000 1.000009,161.000000 
	C1.000006,107.666679 1.000006,54.333355 1.000003,1.000023 
	C54.333317,1.000015 107.666634,1.000015 160.999969,1.000008 
	C160.999969,54.333309 160.999969,107.666618 160.999985,160.999969 
	C141.166672,161.000000 121.333336,161.000000 101.000000,161.000000 
M65.043671,96.225533 
	C63.727371,93.426399 62.411072,90.627274 61.016174,87.117004 
	C59.922382,84.748329 58.828590,82.379646 57.653515,79.322632 
	C56.434952,76.881721 55.216385,74.440819 53.937046,71.270668 
	C53.455177,68.219742 49.818150,65.727409 53.012493,62.052414 
	C55.072266,61.064430 57.132042,60.076443 59.807388,58.984642 
	C60.530155,58.273994 61.252922,57.563347 62.352249,56.741539 
	C62.615082,56.590515 62.716644,56.366405 63.098625,55.481197 
	C63.419319,54.327213 63.740013,53.173233 64.379097,51.439556 
	C63.533894,42.088692 57.401623,38.653812 48.189976,42.918179 
	C44.777256,44.578346 41.364540,46.238514 37.217739,48.007088 
	C34.748711,49.537464 32.279686,51.067841 29.106432,52.971970 
	C29.013638,56.001831 28.920845,59.031696 28.915689,62.796959 
	C30.237640,65.605476 31.559591,68.414001 32.936394,71.946289 
	C34.207085,74.661469 35.477779,77.376656 36.893658,80.813965 
	C37.909973,82.883385 38.926292,84.952812 40.012615,87.735443 
	C41.010120,89.809731 42.007622,91.884026 43.021694,94.664909 
	C43.721317,96.108536 44.420944,97.552162 45.190620,99.713760 
	C48.499447,107.090904 51.530998,114.611488 55.240089,121.781578 
	C56.961590,125.109444 59.538807,128.414917 62.565269,130.536072 
	C65.985207,132.932999 69.747658,130.811981 73.201874,128.964172 
	C78.425713,126.169724 83.803802,123.663628 89.740585,120.770874 
	C90.175919,119.541824 90.611259,118.312775 91.742012,116.819382 
	C92.162201,115.989975 93.015388,115.116516 92.936157,114.337936 
	C92.066315,105.789848 84.907227,102.100281 76.220695,106.000183 
	C74.382706,106.688377 72.544716,107.376572 70.546776,108.124649 
	C69.564293,106.076675 68.589287,104.044296 67.453964,101.395325 
	C66.681396,99.916580 65.908821,98.437836 65.043671,96.225533 
M120.618248,107.937134 
	C121.780205,107.380615 122.942162,106.824097 124.826218,106.118591 
	C127.714287,104.303543 130.602371,102.488487 133.566681,100.597359 
	C133.566681,100.597359 133.500504,100.512375 133.914291,100.127594 
	C134.014252,99.773132 134.114212,99.418663 134.688705,98.632874 
	C134.728806,96.750580 134.768906,94.868279 134.845566,92.224365 
	C132.927094,88.084915 131.008621,83.945465 129.009827,79.093346 
	C127.905060,76.714897 126.800293,74.336441 125.712593,71.483635 
	C125.586342,71.173317 125.369354,70.951897 125.048264,70.373482 
	C125.048264,70.373482 124.806488,69.998573 124.721268,69.289864 
	C122.479240,64.537766 120.237221,59.785667 117.931519,54.369419 
	C117.553146,53.571774 117.174774,52.774128 116.799347,51.468990 
	C116.573517,51.231529 116.347687,50.994072 116.109222,50.848221 
	C116.109222,50.848221 116.201286,50.856960 116.079292,50.135044 
	C114.560013,48.685848 113.283333,46.697987 111.477638,45.884712 
	C105.120667,43.021557 99.834366,39.258873 97.662712,32.212967 
	C92.008148,32.212967 86.499802,32.212967 80.271690,31.933077 
	C74.851021,30.020317 73.254730,31.063297 70.569405,38.556149 
	C70.237305,43.414078 72.282532,47.064262 76.769897,48.741154 
	C80.678162,50.201637 84.738388,50.227100 88.675972,46.785408 
	C89.929550,46.294006 91.183136,45.802601 92.420792,45.317440 
	C93.174644,46.786335 93.747818,47.903194 94.328079,49.459946 
	C94.483856,49.725002 94.707077,49.907608 95.000916,50.000000 
	C95.000916,50.000000 94.994682,50.001980 95.066765,50.748806 
	C96.664085,54.178490 98.261414,57.608173 99.953041,61.762760 
	C101.248734,64.511765 102.544426,67.260765 103.958817,70.743912 
	C105.549980,74.195366 107.141151,77.646812 108.883636,81.834465 
	C109.925529,84.555550 110.967422,87.276634 111.329323,90.031212 
	C109.886330,90.993126 108.443336,91.955040 106.280807,92.961319 
	C103.912338,95.304115 101.543869,97.646912 98.895393,100.643677 
	C97.928871,105.023407 99.414574,108.553360 103.112915,110.835556 
	C105.901398,112.556290 108.895996,114.700623 112.487625,112.589737 
	C115.009094,111.107819 117.472794,109.527596 120.618248,107.937134 
z"/>
<path fill="#A55AF2" opacity="1.000000" stroke="none" 
	d="
M89.116348,121.035011 
	C83.803802,123.663628 78.425713,126.169724 73.201874,128.964172 
	C69.747658,130.811981 65.985207,132.932999 62.565269,130.536072 
	C59.538807,128.414917 56.961590,125.109444 55.240089,121.781578 
	C51.530998,114.611488 48.499447,107.090904 45.473740,99.477615 
	C60.210026,106.505989 74.663185,113.770500 89.116348,121.035011 
z"/>
<path fill="#67ACF4" opacity="1.000000" stroke="none" 
	d="
M116.796402,51.976479 
	C117.174774,52.774128 117.553146,53.571774 117.888977,55.046192 
	C117.360855,57.177402 116.875267,58.631840 116.779373,58.919056 
	C109.529610,55.315144 103.444946,50.162697 94.994682,50.001980 
	C94.994682,50.001980 95.000916,50.000000 94.913712,49.821735 
	C94.690079,49.409657 94.521576,49.201851 94.320999,49.020054 
	C93.747818,47.903194 93.174644,46.786335 92.420792,45.317440 
	C91.183136,45.802601 89.929550,46.294006 88.185036,46.512871 
	C85.140099,44.585335 82.711220,42.675045 79.997833,41.345257 
	C77.134682,39.942070 74.000122,39.092678 70.984131,38.001350 
	C73.254730,31.063297 74.851021,30.020317 80.762115,32.371613 
	C82.644127,33.936108 83.889999,35.351746 85.452583,36.137730 
	C92.120750,39.491825 98.876869,42.671661 105.612411,45.890972 
	C109.129707,47.572094 112.670891,49.203243 116.201286,50.856960 
	C116.201286,50.856960 116.109222,50.848221 116.197647,51.022453 
	C116.419792,51.480431 116.589905,51.740360 116.796402,51.976479 
z"/>
<path fill="#A161F4" opacity="1.000000" stroke="none" 
	d="
M89.428467,120.902946 
	C74.663185,113.770500 60.210026,106.505989 45.438713,99.118637 
	C44.420944,97.552162 43.721317,96.108536 43.046150,94.005280 
	C44.243561,93.257683 45.598434,92.741531 46.560387,93.150223 
	C53.568413,96.127556 59.245670,102.237923 67.614281,102.011925 
	C68.589287,104.044296 69.564293,106.076675 70.546776,108.124649 
	C72.544716,107.376572 74.382706,106.688377 76.867569,106.244003 
	C80.663948,108.210457 83.646790,110.491150 87.010727,111.495804 
	C90.251923,112.463814 91.296227,114.062515 91.046593,117.083725 
	C90.611259,118.312775 90.175919,119.541824 89.428467,120.902946 
z"/>
<path fill="#7993F3" opacity="1.000000" stroke="none" 
	d="
M129.090164,79.806007 
	C131.008621,83.945465 132.927094,88.084915 134.474548,92.592957 
	C130.179291,90.937477 126.314453,88.785851 122.314957,86.923370 
	C117.851189,84.844696 113.265144,83.028625 108.732315,81.098267 
	C107.141151,77.646812 105.549980,74.195366 104.274933,70.401260 
	C111.514549,73.101578 118.421799,76.182663 125.377968,79.149010 
	C126.503990,79.629181 127.847298,79.599838 129.090164,79.806007 
z"/>
<path fill="#739BF3" opacity="1.000000" stroke="none" 
	d="
M129.049988,79.449677 
	C127.847298,79.599838 126.503990,79.629181 125.377968,79.149010 
	C118.421799,76.182663 111.514549,73.101578 104.215584,70.034195 
	C102.544426,67.260765 101.248734,64.511765 100.335739,61.394096 
	C108.747787,64.016479 116.777138,67.007530 124.806488,69.998573 
	C124.806488,69.998573 125.048264,70.373482 125.141182,70.796509 
	C125.363106,71.481186 125.516914,71.727333 125.695526,71.957985 
	C126.800293,74.336441 127.905060,76.714897 129.049988,79.449677 
z"/>
<path fill="#6BA2F1" opacity="1.000000" stroke="none" 
	d="
M124.763878,69.644218 
	C116.777138,67.007530 108.747787,64.016479 100.288589,61.031647 
	C98.261414,57.608173 96.664085,54.178490 95.030724,50.375393 
	C103.444946,50.162697 109.529610,55.315144 116.779373,58.919056 
	C116.875267,58.631840 117.360855,57.177402 117.920822,55.378265 
	C120.237221,59.785667 122.479240,64.537766 124.763878,69.644218 
z"/>
<path fill="#7C90F4" opacity="1.000000" stroke="none" 
	d="
M61.975685,56.852699 
	C61.252922,57.563347 60.530155,58.273994 59.157471,58.884026 
	C51.655643,55.155167 44.803734,51.526924 37.951820,47.898682 
	C41.364540,46.238514 44.777256,44.578346 48.692017,43.172337 
	C54.149612,46.290745 59.105160,49.154995 64.060707,52.019249 
	C63.740013,53.173233 63.419319,54.327213 62.747322,55.890011 
	C62.231804,56.465157 62.091690,56.649780 61.975685,56.852699 
z"/>
<path fill="#897EF2" opacity="1.000000" stroke="none" 
	d="
M52.321957,62.147903 
	C49.818150,65.727409 53.455177,68.219742 53.583836,71.626572 
	C48.022064,69.570709 42.867001,67.032387 37.583233,64.798508 
	C34.780159,63.613426 31.753679,62.956764 28.828051,62.061558 
	C28.920845,59.031696 29.013638,56.001831 29.721617,53.045914 
	C37.665188,56.129211 44.993572,59.138557 52.321957,62.147903 
z"/>
<path fill="#9471F3" opacity="1.000000" stroke="none" 
	d="
M57.734798,80.010971 
	C58.828590,82.379646 59.922382,84.748329 60.766548,87.688965 
	C58.053082,87.751114 55.482262,87.532196 53.146797,86.673302 
	C47.621204,84.641235 42.207447,82.305054 36.748470,80.091835 
	C35.477779,77.376656 34.207085,74.661469 33.169189,71.375946 
	C35.027397,71.261818 36.705643,71.583542 38.268997,72.197708 
	C44.776436,74.754181 51.249271,77.398727 57.734798,80.010971 
z"/>
<path fill="#7F8AF2" opacity="1.000000" stroke="none" 
	d="
M108.807976,81.466370 
	C113.265144,83.028625 117.851189,84.844696 122.314957,86.923370 
	C126.314453,88.785851 130.179291,90.937477 134.456284,92.973763 
	C134.768906,94.868279 134.728806,96.750580 134.286163,99.062706 
	C133.755905,99.832481 133.628204,100.172432 133.500504,100.512375 
	C133.500504,100.512375 133.566681,100.597359 133.127121,100.500969 
	C125.794815,96.935623 118.902069,93.466667 112.009323,89.997719 
	C110.967422,87.276634 109.925529,84.555550 108.807976,81.466370 
z"/>
<path fill="#8E76F1" opacity="1.000000" stroke="none" 
	d="
M57.694157,79.666801 
	C51.249271,77.398727 44.776436,74.754181 38.268997,72.197708 
	C36.705643,71.583542 35.027397,71.261818 33.141766,71.014069 
	C31.559591,68.414001 30.237640,65.605476 28.871870,62.429260 
	C31.753679,62.956764 34.780159,63.613426 37.583233,64.798508 
	C42.867001,67.032387 48.022064,69.570709 53.614223,71.991196 
	C55.216385,74.440819 56.434952,76.881721 57.694157,79.666801 
z"/>
<path fill="#8287F2" opacity="1.000000" stroke="none" 
	d="
M52.667225,62.100159 
	C44.993572,59.138557 37.665188,56.129211 30.073730,52.859039 
	C32.279686,51.067841 34.748711,49.537464 37.584778,47.952885 
	C44.803734,51.526924 51.655643,55.155167 58.849686,58.935936 
	C57.132042,60.076443 55.072266,61.064430 52.667225,62.100159 
z"/>
<path fill="#60AEEF" opacity="1.000000" stroke="none" 
	d="
M116.140289,50.496002 
	C112.670891,49.203243 109.129707,47.572094 105.612411,45.890972 
	C98.876869,42.671661 92.120750,39.491825 85.452583,36.137730 
	C83.889999,35.351746 82.644127,33.936108 81.122009,32.511559 
	C86.499802,32.212967 92.008148,32.212967 97.662712,32.212967 
	C99.834366,39.258873 105.120667,43.021557 111.477638,45.884712 
	C113.283333,46.697987 114.560013,48.685848 116.140289,50.496002 
z"/>
<path fill="#8582F1" opacity="1.000000" stroke="none" 
	d="
M111.669327,90.014465 
	C118.902069,93.466667 125.794815,96.935623 133.088989,100.539009 
	C130.602371,102.488487 127.714287,104.303543 124.412003,105.822433 
	C119.690392,102.750969 115.311829,100.077698 111.112175,97.147957 
	C109.528450,96.043121 108.358780,94.344757 107.000351,92.916962 
	C108.443336,91.955040 109.886330,90.993126 111.669327,90.014465 
z"/>
<path fill="#8C7CF4" opacity="1.000000" stroke="none" 
	d="
M106.640579,92.939133 
	C108.358780,94.344757 109.528450,96.043121 111.112175,97.147957 
	C115.311829,100.077698 119.690392,102.750969 124.050957,105.896927 
	C122.942162,106.824097 121.780205,107.380615 119.904457,107.929565 
	C115.278214,106.311943 111.378563,104.669769 107.448914,103.102852 
	C104.712387,102.011681 101.934708,101.023750 99.175407,99.989708 
	C101.543869,97.646912 103.912338,95.304115 106.640579,92.939133 
z"/>
<path fill="#8D71EC" opacity="1.000000" stroke="none" 
	d="
M99.035400,100.316696 
	C101.934708,101.023750 104.712387,102.011681 107.448914,103.102852 
	C111.378563,104.669769 115.278214,106.311943 119.576477,107.956635 
	C117.472794,109.527596 115.009094,111.107819 112.487625,112.589737 
	C108.895996,114.700623 105.901398,112.556290 103.112915,110.835556 
	C99.414574,108.553360 97.928871,105.023407 99.035400,100.316696 
z"/>
<path fill="#976AF1" opacity="1.000000" stroke="none" 
	d="
M36.821064,80.452896 
	C42.207447,82.305054 47.621204,84.641235 53.146797,86.673302 
	C55.482262,87.532196 58.053082,87.751114 60.805847,88.044525 
	C62.411072,90.627274 63.727371,93.426399 64.746979,96.489319 
	C59.177486,94.320374 53.964172,91.744766 48.607243,89.514038 
	C45.851082,88.366318 42.839031,87.833115 39.942612,87.022232 
	C38.926292,84.952812 37.909973,82.883385 36.821064,80.452896 
z"/>
<path fill="#9C65F3" opacity="1.000000" stroke="none" 
	d="
M39.977612,87.378838 
	C42.839031,87.833115 45.851082,88.366318 48.607243,89.514038 
	C53.964172,91.744766 59.177486,94.320374 64.793274,96.856102 
	C65.908821,98.437836 66.681396,99.916580 67.534119,101.703629 
	C59.245670,102.237923 53.568413,96.127556 46.560387,93.150223 
	C45.598434,92.741531 44.243561,93.257683 43.037865,93.651978 
	C42.007622,91.884026 41.010120,89.809731 39.977612,87.378838 
z"/>
<path fill="#6A9FEC" opacity="1.000000" stroke="none" 
	d="
M70.776764,38.278748 
	C74.000122,39.092678 77.134682,39.942070 79.997833,41.345257 
	C82.711220,42.675045 85.140099,44.585335 87.853676,46.535370 
	C84.738388,50.227100 80.678162,50.201637 76.769897,48.741154 
	C72.282532,47.064262 70.237305,43.414078 70.776764,38.278748 
z"/>
<path fill="#7395EE" opacity="1.000000" stroke="none" 
	d="
M64.219902,51.729401 
	C59.105160,49.154995 54.149612,46.290745 49.056957,43.103424 
	C57.401623,38.653812 63.533894,42.088692 64.219902,51.729401 
z"/>
<path fill="#9667ED" opacity="1.000000" stroke="none" 
	d="
M91.394302,116.951553 
	C91.296227,114.062515 90.251923,112.463814 87.010727,111.495804 
	C83.646790,110.491150 80.663948,108.210457 77.264481,106.262306 
	C84.907227,102.100281 92.066315,105.789848 92.936157,114.337936 
	C93.015388,115.116516 92.162201,115.989975 91.394302,116.951553 
z"/>
<path fill="#8287F2" opacity="1.000000" stroke="none" 
	d="
M62.163967,56.797119 
	C62.091690,56.649780 62.231804,56.465157 62.526482,56.184021 
	C62.716644,56.366405 62.615082,56.590515 62.163967,56.797119 
z"/>
<path fill="#60AEEF" opacity="1.000000" stroke="none" 
	d="
M116.797874,51.722733 
	C116.589905,51.740360 116.419792,51.480431 116.203964,50.976650 
	C116.347687,50.994072 116.573517,51.231529 116.797874,51.722733 
z"/>
<path fill="#6BA2F1" opacity="1.000000" stroke="none" 
	d="
M94.324539,49.239998 
	C94.521576,49.201851 94.690079,49.409657 94.912125,49.825615 
	C94.707077,49.907608 94.483856,49.725002 94.324539,49.239998 
z"/>
<path fill="#6BA2F1" opacity="1.000000" stroke="none" 
	d="
M125.704063,71.720810 
	C125.516914,71.727333 125.363106,71.481186 125.147865,71.019463 
	C125.369354,70.951897 125.586342,71.173317 125.704063,71.720810 
z"/>
<path fill="#8582F1" opacity="1.000000" stroke="none" 
	d="
M133.707397,100.319984 
	C133.628204,100.172432 133.755905,99.832481 134.048889,99.278366 
	C134.114212,99.418663 134.014252,99.773132 133.707397,100.319984 
z"/>
</svg>