<svg version="1.1" id="Layer_1" xmlns="http://www.w3.org/2000/svg" xmlns:xlink="http://www.w3.org/1999/xlink" x="0px" y="0px"
	 width="100%" viewBox="0 0 160 160" enable-background="new 0 0 160 160" xml:space="preserve">
<path fill="#FFFFFF" opacity="1.000000" stroke="none" 
	d="
M88.000000,161.000000 
	C58.666672,161.000000 29.833340,161.000000 1.000008,161.000000 
	C1.000005,107.666679 1.000005,54.333351 1.000003,1.000022 
	C54.333317,1.000015 107.666634,1.000015 160.999969,1.000007 
	C160.999969,54.333313 160.999969,107.666626 160.999985,160.999969 
	C136.833328,161.000000 112.666664,161.000000 88.000000,161.000000 
M35.401688,138.443146 
	C35.612244,138.959091 35.822800,139.475037 36.224236,140.745728 
	C38.703598,141.780960 41.152870,143.613983 43.667694,143.708847 
	C52.951767,144.058960 62.282341,144.242935 71.546265,143.680115 
	C77.582550,143.313370 83.801620,142.297806 89.475777,140.274414 
	C111.580383,132.391983 125.751358,110.246407 126.421669,83.275146 
	C126.542084,77.794586 126.817039,72.311996 126.744843,66.833977 
	C126.648857,59.550976 126.282310,52.271549 126.064697,44.198303 
	C124.296371,30.787539 110.377510,18.735418 96.220116,18.167633 
	C87.086792,17.801338 77.901993,17.768953 68.784668,18.320715 
	C63.568932,18.636360 58.083870,19.612059 53.347088,21.707788 
	C42.196865,26.641064 36.598812,35.814552 35.670456,48.723335 
	C35.638172,51.175465 35.605885,53.627590 35.390076,56.987309 
	C35.374722,63.150578 35.328365,69.313950 35.349667,75.477089 
	C35.421608,96.290886 35.517559,117.104591 35.401688,138.443146 
z"/>
<path fill="#4A4B4A" opacity="1.000000" stroke="none" 
	d="
M126.095428,84.025192 
	C125.751358,110.246407 111.580383,132.391983 89.475777,140.274414 
	C83.801620,142.297806 77.582550,143.313370 71.546265,143.680115 
	C62.282341,144.242935 52.951767,144.058960 43.667694,143.708847 
	C41.152870,143.613983 38.703598,141.780960 36.309685,140.215302 
	C36.131535,139.096024 35.867935,138.507187 35.604332,137.918335 
	C35.517559,117.104591 35.421608,96.290886 35.349667,75.477089 
	C35.328365,69.313950 35.374722,63.150578 35.786835,56.359013 
	C36.107819,53.150234 36.032040,50.569756 35.956261,47.989273 
	C36.598812,35.814552 42.196865,26.641064 53.347088,21.707788 
	C58.083870,19.612059 63.568932,18.636360 68.784668,18.320715 
	C77.901993,17.768953 87.086792,17.801338 96.220116,18.167633 
	C110.377510,18.735418 124.296371,30.787539 125.780922,44.910484 
	C125.387634,57.856487 125.265556,70.090248 125.208557,82.324310 
	C125.205917,82.889885 125.786484,83.458168 126.095428,84.025192 
M63.572655,57.473442 
	C58.217987,55.702858 52.863319,53.932274 46.641178,51.874851 
	C46.641178,59.529202 46.869812,65.653877 46.556911,71.750755 
	C46.363865,75.512352 48.406628,76.108086 51.287060,77.319801 
	C55.720009,79.184601 59.694458,82.139320 64.558121,84.893501 
	C78.542473,99.681000 78.171303,115.445755 67.566101,131.870605 
	C84.495499,133.951355 100.702278,124.727783 108.724518,108.656349 
	C117.541496,90.992790 114.715149,72.109322 115.239578,53.355114 
	C106.504509,55.392262 99.341782,61.069771 92.553085,70.977486 
	C88.759155,76.514511 85.844048,76.426552 81.043282,71.756264 
	C76.333336,67.174324 70.984276,63.249359 65.597549,58.572521 
	C65.076332,58.391163 64.555122,58.209805 63.572655,57.473442 
M94.831497,28.715406 
	C94.548035,28.832468 94.264572,28.949532 93.068886,29.291033 
	C83.761581,29.514387 74.448311,29.601749 65.149132,30.010059 
	C59.189579,30.271734 54.288708,32.976738 50.823357,37.887115 
	C49.909611,39.181892 49.587337,40.894081 49.470867,41.192280 
	C55.702610,43.118366 61.274685,44.840565 67.516670,46.907833 
	C74.024155,51.064796 80.531647,55.221760 87.334351,59.567310 
	C92.732193,51.333893 100.918228,45.890339 111.034431,41.973083 
	C114.929115,41.489182 112.504715,39.524639 111.721748,38.357334 
	C107.758842,32.449116 101.793327,30.003773 94.831497,28.715406 
M58.663769,124.092972 
	C64.266891,116.766899 65.740570,108.789009 61.877754,100.282303 
	C58.973820,93.887253 54.249100,89.406494 46.974037,87.671928 
	C46.974037,102.578949 46.974037,116.933441 46.974037,132.870605 
	C51.372505,129.631180 54.769295,127.129494 58.663769,124.092972 
z"/>
<path fill="#656565" opacity="1.000000" stroke="none" 
	d="
M126.258545,83.650169 
	C125.786484,83.458168 125.205917,82.889885 125.208557,82.324310 
	C125.265556,70.090248 125.387634,57.856487 125.764572,45.306625 
	C126.282310,52.271549 126.648857,59.550976 126.744843,66.833977 
	C126.817039,72.311996 126.542084,77.794586 126.258545,83.650169 
z"/>
<path fill="#676767" opacity="1.000000" stroke="none" 
	d="
M35.813358,48.356304 
	C36.032040,50.569756 36.107819,53.150234 35.878597,55.905220 
	C35.605885,53.627590 35.638172,51.175465 35.813358,48.356304 
z"/>
<path fill="#676767" opacity="1.000000" stroke="none" 
	d="
M35.503010,138.180740 
	C35.867935,138.507187 36.131535,139.096024 36.214245,139.837921 
	C35.822800,139.475037 35.612244,138.959091 35.503010,138.180740 
z"/>
<path fill="#70E0B5" opacity="1.000000" stroke="none" 
	d="
M65.915695,59.036072 
	C70.984276,63.249359 76.333336,67.174324 81.043282,71.756264 
	C85.844048,76.426552 88.759155,76.514511 92.553085,70.977486 
	C99.341782,61.069771 106.504509,55.392262 115.239578,53.355114 
	C114.715149,72.109322 117.541496,90.992790 108.724518,108.656349 
	C100.702278,124.727783 84.495499,133.951355 67.566101,131.870605 
	C78.171303,115.445755 78.542473,99.681000 64.164871,84.478439 
	C63.869781,83.696075 63.967949,83.328773 64.328224,82.716644 
	C64.429970,80.665489 64.269608,78.859154 64.047272,76.586685 
	C64.026070,71.398293 64.066856,66.676025 64.341896,61.770592 
	C65.022667,60.736977 65.469185,59.886524 65.915695,59.036072 
z"/>
<path fill="#F8FAF9" opacity="1.000000" stroke="none" 
	d="
M66.846756,46.562763 
	C61.274685,44.840565 55.702610,43.118366 49.470867,41.192280 
	C49.587337,40.894081 49.909611,39.181892 50.823357,37.887115 
	C54.288708,32.976738 59.189579,30.271734 65.149132,30.010059 
	C74.448311,29.601749 83.761581,29.514387 93.784683,29.247040 
	C94.674133,29.159609 94.847778,29.116167 95.021423,29.072727 
	C101.793327,30.003773 107.758842,32.449116 111.721748,38.357334 
	C112.504715,39.524639 114.929115,41.489182 110.179123,41.932877 
	C99.013885,41.880836 88.702118,41.978832 78.394829,41.807449 
	C73.750626,41.730225 69.954201,43.174301 66.846756,46.562763 
z"/>
<path fill="#FCFCFC" opacity="1.000000" stroke="none" 
	d="
M58.414925,124.360382 
	C54.769295,127.129494 51.372505,129.631180 46.974037,132.870605 
	C46.974037,116.933441 46.974037,102.578949 46.974037,87.671928 
	C54.249100,89.406494 58.973820,93.887253 61.877754,100.282303 
	C65.740570,108.789009 64.266891,116.766899 58.414925,124.360382 
z"/>
<path fill="#FCFCFC" opacity="1.000000" stroke="none" 
	d="
M64.066116,82.961472 
	C63.967949,83.328773 63.869781,83.696075 63.817520,84.347504 
	C59.694458,82.139320 55.720009,79.184601 51.287060,77.319801 
	C48.406628,76.108086 46.363865,75.512352 46.556911,71.750755 
	C46.869812,65.653877 46.641178,59.529202 46.641178,51.874851 
	C52.863319,53.932274 58.217987,55.702858 63.791340,58.143349 
	C64.042564,59.860085 64.075104,60.906921 64.107635,61.953754 
	C64.066856,66.676025 64.026070,71.398293 64.002464,77.006523 
	C64.035126,79.582146 64.050621,81.271812 64.066116,82.961472 
z"/>
<path fill="#6EDFB5" opacity="1.000000" stroke="none" 
	d="
M67.181717,46.735298 
	C69.954201,43.174301 73.750626,41.730225 78.394829,41.807449 
	C88.702118,41.978832 99.013885,41.880836 109.819290,41.973003 
	C100.918228,45.890339 92.732193,51.333893 87.334351,59.567310 
	C80.531647,55.221760 74.024155,51.064796 67.181717,46.735298 
z"/>
<path fill="#5CDBB0" opacity="1.000000" stroke="none" 
	d="
M64.341904,61.770592 
	C64.075104,60.906921 64.042564,59.860085 64.021965,58.420845 
	C64.555122,58.209805 65.076332,58.391163 65.756622,58.804298 
	C65.469185,59.886524 65.022667,60.736977 64.341904,61.770592 
z"/>
<path fill="#353535" opacity="1.000000" stroke="none" 
	d="
M94.926460,28.894066 
	C94.847778,29.116167 94.674133,29.159609 94.240799,29.134821 
	C94.264572,28.949532 94.548035,28.832468 94.926460,28.894066 
z"/>
<path fill="#5CDBB0" opacity="1.000000" stroke="none" 
	d="
M64.328224,82.716644 
	C64.050621,81.271812 64.035126,79.582146 64.064438,77.472656 
	C64.269608,78.859154 64.429970,80.665489 64.328224,82.716644 
z"/>
</svg>