<svg version="1.1" id="Layer_1" xmlns="http://www.w3.org/2000/svg" xmlns:xlink="http://www.w3.org/1999/xlink" x="0px" y="0px"
	 width="100%" viewBox="0 0 160 160" enable-background="new 0 0 160 160" xml:space="preserve">
<path fill="#000000" opacity="1.000000" stroke="none" 
	d="
M80.000000,161.000000 
	C53.333336,161.000000 27.166674,161.000000 1.000007,161.000000 
	C1.000005,107.666679 1.000005,54.333351 1.000002,1.000021 
	C54.333317,1.000014 107.666634,1.000014 160.999969,1.000007 
	C160.999969,54.333313 160.999969,107.666626 160.999985,160.999969 
	C134.166672,161.000000 107.333336,161.000000 80.000000,161.000000 
M54.044704,89.495842 
	C54.044704,89.495842 54.145954,89.496376 54.042336,88.998589 
	C53.931370,88.682457 53.820400,88.366318 53.440578,87.480614 
	C52.655682,87.226013 51.870785,86.971413 50.631908,86.407784 
	C50.088688,86.338364 49.545467,86.268944 48.480621,85.854698 
	C47.774792,85.436394 47.068958,85.018097 45.724251,84.227470 
	C44.741413,84.203125 43.758575,84.178780 42.615284,83.525902 
	C40.156574,82.870003 37.697865,82.214096 34.205322,81.282402 
	C32.943783,79.423820 31.994877,76.969131 37.736935,76.893013 
	C38.714787,76.635605 39.692638,76.378197 41.353584,76.024590 
	C42.420433,75.165535 43.487282,74.306480 44.928867,73.814758 
	C45.273159,73.828537 45.617447,73.842316 46.455585,73.806892 
	C46.851082,73.516815 47.246578,73.226738 48.238346,72.400093 
	C49.234718,72.026085 50.231087,71.652077 51.517929,71.343407 
	C51.726398,71.300537 51.885159,71.187668 52.006077,71.010635 
	C52.006077,71.010635 52.010742,70.997566 52.549778,70.930298 
	C52.932728,70.586182 53.315678,70.242073 53.937176,69.264740 
	C53.937176,67.222725 53.937176,65.180717 53.937176,61.899567 
	C49.767326,64.756760 46.610317,66.919945 42.658772,69.085091 
	C40.937370,70.017372 39.185844,70.898872 37.503506,71.896996 
	C35.987812,72.796242 34.629810,73.991997 33.056080,74.755775 
	C30.467607,76.012039 27.674543,76.872734 25.186958,78.286057 
	C24.757847,78.529854 25.062420,81.588158 25.627161,81.808083 
	C29.005072,83.123558 32.558422,83.988541 36.085091,85.561104 
	C36.365223,85.795860 36.645359,86.030624 37.269196,86.835960 
	C39.854290,88.220421 42.439384,89.604881 45.365067,91.537888 
	C46.582169,91.906670 47.799274,92.275459 49.496468,92.890152 
	C49.672661,92.926018 49.848850,92.961876 50.357609,93.545341 
	C51.499264,93.881409 52.640915,94.217468 53.963238,94.045410 
	C54.244743,93.011765 54.526245,91.978127 54.977219,90.714943 
	C54.929085,90.749451 54.880951,90.783958 54.240143,90.248169 
	C54.141632,89.992325 54.043121,89.736473 54.044704,89.495842 
M121.932114,88.001877 
	C121.932114,88.001877 122.069252,88.055168 122.790413,87.981255 
	C123.264992,87.897202 123.739578,87.813148 124.756821,87.426331 
	C125.466202,87.027519 126.175591,86.628708 127.215012,85.757324 
	C128.091339,85.487427 129.138031,85.434448 129.811111,84.905792 
	C131.622192,83.483261 133.911026,82.133919 134.746109,80.207542 
	C135.235519,79.078560 133.725815,76.245003 132.355103,75.372055 
	C130.839767,74.407036 128.455856,74.805923 126.450233,74.610786 
	C126.993042,74.354378 127.535858,74.097969 128.078674,73.841560 
	C126.361595,73.223358 124.644524,72.605164 122.830635,71.390038 
	C122.248047,70.843666 121.665466,70.297295 120.650986,69.242195 
	C116.745171,68.253098 112.091866,68.822197 109.503922,63.820679 
	C108.676460,63.755291 107.849007,63.689907 107.021545,63.624519 
	C107.078377,66.595306 105.105782,70.324287 110.635559,71.498589 
	C116.368248,73.787773 122.005363,76.257957 126.277878,80.004044 
	C125.496140,80.316612 124.714401,80.629189 123.410973,81.109268 
	C122.935356,81.376892 122.459747,81.644516 121.339020,81.874191 
	C120.636299,82.273903 119.933578,82.673615 119.022934,83.743118 
	C118.988571,84.443466 118.954208,85.143822 118.249123,85.877815 
	C116.148392,84.650833 114.049156,83.594452 111.295273,86.169693 
	C105.034561,86.810204 107.077278,91.175827 107.101135,95.261963 
	C109.695305,94.046989 111.848801,93.038406 114.667427,91.909164 
	C116.091133,90.658401 117.514839,89.407639 119.245392,88.671066 
	C119.823006,88.719223 120.400612,88.767372 121.456474,88.789284 
	C121.793098,88.607887 121.903740,88.334930 121.932114,88.001877 
M83.664810,63.838745 
	C84.112923,63.817219 84.561035,63.795689 85.738930,63.967148 
	C88.040573,64.636192 90.342209,65.305229 92.632401,65.970940 
	C95.846725,58.118713 93.471756,55.403088 83.514557,56.024658 
	C83.341042,56.056137 83.167534,56.087616 82.431709,55.918911 
	C81.297775,55.992783 80.163841,56.066650 78.287521,56.238121 
	C76.412392,57.047764 74.537262,57.857407 72.034012,58.837955 
	C71.639816,59.015076 71.245613,59.192196 70.298859,59.630730 
	C69.160934,61.036289 68.023010,62.441849 66.388130,64.271362 
	C65.861900,64.952698 65.335670,65.634033 64.372299,66.830879 
	C60.948879,75.595932 60.538326,84.302849 65.078728,93.531013 
	C65.720032,94.597122 66.361343,95.663239 67.449638,97.139969 
	C68.529037,98.023880 69.608429,98.907799 71.197617,100.106522 
	C71.735939,100.369019 72.274254,100.631508 73.320839,101.267876 
	C75.226089,101.709755 77.131340,102.151642 79.745750,102.861023 
	C81.474510,102.290901 83.203262,101.720787 85.207809,101.649277 
	C85.830147,101.486244 86.452477,101.323219 87.817429,101.132248 
	C92.518433,103.719719 95.058205,101.072418 92.878448,92.587311 
	C90.832687,93.740135 88.954964,94.798271 86.729721,95.310806 
	C86.098213,95.855843 85.466698,96.400879 84.154709,96.907745 
	C82.448189,96.028748 80.741661,95.149742 78.318840,94.160042 
	C76.770981,92.126556 75.223122,90.093071 73.431923,87.339966 
	C73.307487,81.912254 73.183052,76.484543 73.552948,70.616501 
	C75.411278,68.524628 77.269608,66.432762 79.906670,64.263367 
	C80.936150,64.097382 81.965637,63.931404 83.664810,63.838745 
z"/>
<path fill="#44AC1B" opacity="1.000000" stroke="none" 
	d="
M36.052933,85.004608 
	C32.558422,83.988541 29.005072,83.123558 25.627161,81.808083 
	C25.062420,81.588158 24.757847,78.529854 25.186958,78.286057 
	C27.674543,76.872734 30.467607,76.012039 33.056080,74.755775 
	C34.629810,73.991997 35.987812,72.796242 37.503506,71.896996 
	C39.185844,70.898872 40.937370,70.017372 43.315975,69.202988 
	C45.196144,70.526146 46.419109,71.731400 47.642075,72.936661 
	C47.246578,73.226738 46.851082,73.516815 46.059837,73.764297 
	C45.294102,73.630272 44.924114,73.538849 44.554131,73.447426 
	C43.487282,74.306480 42.420433,75.165535 40.640335,76.091309 
	C38.954041,76.299553 37.980999,76.441078 37.007957,76.582596 
	C31.994877,76.969131 32.943783,79.423820 34.205322,81.282402 
	C37.697865,82.214096 40.156574,82.870003 42.603481,84.069031 
	C43.362556,85.174797 44.133438,85.737427 44.977634,86.529938 
	C45.042130,88.169662 45.033302,89.579506 45.024479,90.989349 
	C42.439384,89.604881 39.854290,88.220421 36.957962,86.336441 
	C36.448795,85.559486 36.250862,85.282051 36.052933,85.004608 
z"/>
<path fill="#3C911C" opacity="1.000000" stroke="none" 
	d="
M109.968391,64.117645 
	C112.091866,68.822197 116.745171,68.253098 120.994255,69.763321 
	C121.867500,70.851952 122.397484,71.419456 122.927460,71.986954 
	C124.644524,72.605164 126.361595,73.223358 128.078674,73.841560 
	C127.535858,74.097969 126.993042,74.354378 126.450233,74.610786 
	C128.455856,74.805923 130.839767,74.407036 132.355103,75.372055 
	C133.725815,76.245003 135.235519,79.078560 134.746109,80.207542 
	C133.911026,82.133919 131.622192,83.483261 129.811111,84.905792 
	C129.138031,85.434448 128.091339,85.487427 127.025818,85.619415 
	C126.864304,83.686691 126.891975,81.891884 126.919647,80.097069 
	C122.005363,76.257957 116.368248,73.787773 110.310928,71.164940 
	C109.980331,68.593407 109.974358,66.355530 109.968391,64.117645 
M123.233803,74.519600 
	C123.063332,74.555801 122.892853,74.592010 122.722382,74.628220 
	C122.867477,74.638718 123.012566,74.649216 123.233803,74.519600 
z"/>
<path fill="#46B51B" opacity="1.000000" stroke="none" 
	d="
M66.885086,63.847404 
	C68.023010,62.441849 69.160934,61.036289 70.580505,59.937775 
	C70.804054,73.427116 70.745941,86.609413 70.687828,99.791710 
	C69.608429,98.907799 68.529037,98.023880 67.267670,96.495667 
	C67.018837,85.183380 66.951965,74.515388 66.885086,63.847404 
z"/>
<path fill="#46B51B" opacity="1.000000" stroke="none" 
	d="
M79.035141,94.270744 
	C80.741661,95.149742 82.448189,96.028748 84.786224,96.814163 
	C85.970917,96.432518 86.524086,96.144463 87.077248,95.856400 
	C88.954964,94.798271 90.832687,93.740135 92.878448,92.587311 
	C95.058205,101.072418 92.518433,103.719719 87.384132,100.913879 
	C86.558304,100.345688 86.165779,99.995880 85.773247,99.646065 
	C85.492836,100.147598 85.212433,100.649139 84.932022,101.150673 
	C83.203262,101.720787 81.474510,102.290901 79.403290,102.313950 
	C79.052261,99.268166 79.043701,96.769455 79.035141,94.270744 
M90.510323,100.522636 
	C90.510323,100.522636 90.498520,100.482597 90.510323,100.522636 
z"/>
<path fill="#43AD1A" opacity="1.000000" stroke="none" 
	d="
M84.043068,56.018475 
	C93.471756,55.403088 95.846725,58.118713 92.632401,65.970940 
	C90.342209,65.305229 88.040573,64.636192 85.371338,63.465820 
	C84.683525,60.649155 84.363297,58.333813 84.043068,56.018475 
z"/>
<path fill="#241126" opacity="1.000000" stroke="none" 
	d="
M70.942719,99.949112 
	C70.745941,86.609413 70.804054,73.427116 70.856789,59.807068 
	C71.245613,59.192196 71.639816,59.015076 72.413956,59.243481 
	C72.882133,63.451614 72.970367,67.254227 73.058609,71.056831 
	C73.183052,76.484543 73.307487,81.912254 73.343018,88.054199 
	C73.106941,92.810287 72.959763,96.852150 72.812576,100.894005 
	C72.274254,100.631508 71.735939,100.369019 70.942719,99.949112 
z"/>
<path fill="#41A31B" opacity="1.000000" stroke="none" 
	d="
M73.305779,70.836670 
	C72.970367,67.254227 72.882133,63.451614 72.728012,59.158028 
	C74.537262,57.857407 76.412392,57.047764 78.660934,56.639107 
	C79.065536,59.473694 79.096733,61.907291 79.127930,64.340889 
	C77.269608,66.432762 75.411278,68.524628 73.305779,70.836670 
z"/>
<path fill="#43AD1A" opacity="1.000000" stroke="none" 
	d="
M47.940208,72.668381 
	C46.419109,71.731400 45.196144,70.526146 43.713242,69.202011 
	C46.610317,66.919945 49.767326,64.756760 53.937176,61.899567 
	C53.937176,65.180717 53.937176,67.222725 53.639175,69.592026 
	C52.897694,70.278725 52.454220,70.638145 52.010742,70.997566 
	C52.010742,70.997566 52.006077,71.010635 51.868721,71.044182 
	C51.558956,71.133331 51.390987,71.200111 51.227455,71.278061 
	C50.231087,71.652077 49.234718,72.026085 47.940208,72.668381 
z"/>
<path fill="#46BA17" opacity="1.000000" stroke="none" 
	d="
M64.875748,92.918129 
	C60.538326,84.302849 60.948879,75.595932 64.660728,67.017334 
	C64.924683,75.775230 64.900215,84.346680 64.875748,92.918129 
z"/>
<path fill="#41A31B" opacity="1.000000" stroke="none" 
	d="
M73.066711,101.080940 
	C72.959763,96.852150 73.106941,92.810287 73.464691,88.414009 
	C75.223122,90.093071 76.770981,92.126556 78.676987,94.215393 
	C79.043701,96.769455 79.052261,99.268166 79.048706,102.180206 
	C77.131340,102.151642 75.226089,101.709755 73.066711,101.080940 
z"/>
<path fill="#261127" opacity="1.000000" stroke="none" 
	d="
M64.977234,93.224571 
	C64.900215,84.346680 64.924683,75.775230 64.879303,66.759583 
	C65.335670,65.634033 65.861900,64.952698 66.636612,64.059387 
	C66.951965,74.515388 67.018837,85.183380 67.044174,96.290359 
	C66.361343,95.663239 65.720032,94.597122 64.977234,93.224571 
z"/>
<path fill="#41A31B" opacity="1.000000" stroke="none" 
	d="
M114.002296,92.029823 
	C111.848801,93.038406 109.695305,94.046989 107.101135,95.261963 
	C107.077278,91.175827 105.034561,86.810204 111.677322,86.417175 
	C112.707008,88.453049 113.354652,90.241440 114.002296,92.029823 
z"/>
<path fill="#40A21C" opacity="1.000000" stroke="none" 
	d="
M109.736160,63.969162 
	C109.974358,66.355530 109.980331,68.593407 109.975281,71.166245 
	C105.105782,70.324287 107.078377,66.595306 107.021545,63.624519 
	C107.849007,63.689907 108.676460,63.755291 109.736160,63.969162 
z"/>
<path fill="#46BA17" opacity="1.000000" stroke="none" 
	d="
M114.334862,91.969498 
	C113.354652,90.241440 112.707008,88.453049 112.019547,86.298752 
	C114.049156,83.594452 116.148392,84.650833 118.591652,86.246193 
	C118.935638,87.128677 118.937088,87.642776 118.938545,88.156883 
	C117.514839,89.407639 116.091133,90.658401 114.334862,91.969498 
z"/>
<path fill="#44AC1B" opacity="1.000000" stroke="none" 
	d="
M50.025036,92.997734 
	C49.848850,92.961876 49.672661,92.926018 49.253433,92.365509 
	C49.007683,89.960411 49.004967,88.079971 49.002247,86.199524 
	C49.545467,86.268944 50.088688,86.338364 51.096687,86.738388 
	C52.277454,87.396065 52.993443,87.723129 53.709435,88.050186 
	C53.820400,88.366318 53.931370,88.682457 54.073807,89.227135 
	C54.105278,89.455681 53.944607,89.480614 53.944607,89.480614 
	C54.043121,89.736473 54.141632,89.992325 54.530365,90.553963 
	C54.820587,90.859756 54.807747,90.944481 54.807747,90.944481 
	C54.526245,91.978127 54.244743,93.011765 53.646763,94.112488 
	C52.228535,93.785622 51.126785,93.391678 50.025036,92.997734 
z"/>
<path fill="#43AD1A" opacity="1.000000" stroke="none" 
	d="
M79.517303,64.302124 
	C79.096733,61.907291 79.065536,59.473694 79.032120,56.590309 
	C80.163841,56.066650 81.297775,55.992783 82.660362,56.307617 
	C82.924385,59.052685 82.959755,61.409054 82.995117,63.765419 
	C81.965637,63.931404 80.936150,64.097382 79.517303,64.302124 
z"/>
<path fill="#41A71A" opacity="1.000000" stroke="none" 
	d="
M48.741432,86.027115 
	C49.004967,88.079971 49.007683,89.960411 49.013390,92.242554 
	C47.799274,92.275459 46.582169,91.906670 45.194771,91.263618 
	C45.033302,89.579506 45.042130,88.169662 45.024178,86.429794 
	C44.997406,86.099762 45.097713,85.902977 45.252155,85.760338 
	C45.609352,85.422829 45.803993,85.220169 46.083694,84.907272 
	C46.176876,84.804817 46.363125,84.599800 46.363125,84.599800 
	C47.068958,85.018097 47.774792,85.436394 48.741432,86.027115 
z"/>
<path fill="#46BA17" opacity="1.000000" stroke="none" 
	d="
M126.598763,80.050552 
	C126.891975,81.891884 126.864304,83.686691 126.860802,85.855698 
	C126.175591,86.628708 125.466202,87.027519 124.441887,87.161362 
	C124.062195,84.911522 123.997429,82.926643 123.932663,80.941765 
	C124.714401,80.629189 125.496140,80.316612 126.598763,80.050552 
z"/>
<path fill="#44AC1B" opacity="1.000000" stroke="none" 
	d="
M83.329971,63.802082 
	C82.959755,61.409054 82.924385,59.052685 82.941513,56.407707 
	C83.167534,56.087616 83.341042,56.056137 83.778809,56.021568 
	C84.363297,58.333813 84.683525,60.649155 85.006454,63.369328 
	C84.561035,63.795689 84.112923,63.817219 83.329971,63.802082 
z"/>
<path fill="#241126" opacity="1.000000" stroke="none" 
	d="
M123.671814,81.025513 
	C123.997429,82.926643 124.062195,84.911522 124.170555,87.312744 
	C123.739578,87.813148 123.264992,87.897202 122.354782,87.683960 
	C121.868301,86.934189 121.817444,86.481712 121.844666,85.623749 
	C121.943207,84.116226 121.963669,83.014183 121.984131,81.912140 
	C122.459747,81.644516 122.935356,81.376892 123.671814,81.025513 
z"/>
<path fill="#4FCC1B" opacity="1.000000" stroke="none" 
	d="
M121.766586,86.029236 
	C121.817444,86.481712 121.868301,86.934189 121.994202,87.720917 
	C122.069252,88.055168 121.932114,88.001877 121.702957,88.103607 
	C121.281723,88.386902 121.116531,88.590294 120.978226,88.815529 
	C120.400612,88.767372 119.823006,88.719223 119.091965,88.413971 
	C118.937088,87.642776 118.935638,87.128677 118.927017,86.229370 
	C118.954208,85.143822 118.988571,84.443466 119.367844,83.553223 
	C120.397354,84.251961 121.081970,85.140594 121.766586,86.029236 
z"/>
<path fill="#41A71A" opacity="1.000000" stroke="none" 
	d="
M44.950859,86.199913 
	C44.133438,85.737427 43.362556,85.174797 42.683708,84.383301 
	C43.758575,84.178780 44.741413,84.203125 46.043686,84.413635 
	C46.363125,84.599800 46.176876,84.804817 45.929073,85.050804 
	C45.479397,85.491776 45.284878,85.693832 45.097713,85.902977 
	C45.097713,85.902977 44.997406,86.099762 44.950859,86.199913 
z"/>
<path fill="#4FCC1B" opacity="1.000000" stroke="none" 
	d="
M85.069916,101.399979 
	C85.212433,100.649139 85.492836,100.147598 85.773247,99.646065 
	C86.165779,99.995880 86.558304,100.345688 87.012825,100.927841 
	C86.452477,101.323219 85.830147,101.486244 85.069916,101.399979 
z"/>
<path fill="#41A71A" opacity="1.000000" stroke="none" 
	d="
M121.844666,85.623749 
	C121.081970,85.140594 120.397354,84.251961 119.471802,83.218323 
	C119.933578,82.673615 120.636299,82.273903 121.661575,81.893166 
	C121.963669,83.014183 121.943207,84.116226 121.844666,85.623749 
z"/>
<path fill="#41A71A" opacity="1.000000" stroke="none" 
	d="
M50.191322,93.271538 
	C51.126785,93.391678 52.228535,93.785622 53.556427,94.366547 
	C52.640915,94.217468 51.499264,93.881409 50.191322,93.271538 
z"/>
<path fill="#4FCC1B" opacity="1.000000" stroke="none" 
	d="
M86.903488,95.583603 
	C86.524086,96.144463 85.970917,96.432518 85.126465,96.833244 
	C85.466698,96.400879 86.098213,95.855843 86.903488,95.583603 
z"/>
<path fill="#40A21C" opacity="1.000000" stroke="none" 
	d="
M122.879044,71.688492 
	C122.397484,71.419456 121.867500,70.851952 121.210205,70.017685 
	C121.665466,70.297295 122.248047,70.843666 122.879044,71.688492 
z"/>
<path fill="#41A71A" opacity="1.000000" stroke="none" 
	d="
M52.280262,70.963928 
	C52.454220,70.638145 52.897694,70.278725 53.519897,69.908630 
	C53.315678,70.242073 52.932728,70.586182 52.280262,70.963928 
z"/>
<path fill="#41A71A" opacity="1.000000" stroke="none" 
	d="
M53.575005,87.765396 
	C52.993443,87.723129 52.277454,87.396065 51.323677,86.892906 
	C51.870785,86.971413 52.655682,87.226013 53.575005,87.765396 
z"/>
<path fill="#43AD1A" opacity="1.000000" stroke="none" 
	d="
M37.372444,76.737808 
	C37.980999,76.441078 38.954041,76.299553 40.298786,76.139404 
	C39.692638,76.378197 38.714787,76.635605 37.372444,76.737808 
z"/>
<path fill="#41A71A" opacity="1.000000" stroke="none" 
	d="
M54.892483,90.829712 
	C54.807747,90.944481 54.820587,90.859756 54.826702,90.839111 
	C54.880951,90.783958 54.929085,90.749451 54.892483,90.829712 
z"/>
<path fill="#43AD1A" opacity="1.000000" stroke="none" 
	d="
M44.741501,73.631088 
	C44.924114,73.538849 45.294102,73.630272 45.812912,73.788895 
	C45.617447,73.842316 45.273159,73.828537 44.741501,73.631088 
z"/>
<path fill="#41A71A" opacity="1.000000" stroke="none" 
	d="
M121.217346,88.802406 
	C121.116531,88.590294 121.281723,88.386902 121.631096,88.087875 
	C121.903740,88.334930 121.793098,88.607887 121.217346,88.802406 
z"/>
<path fill="#41A71A" opacity="1.000000" stroke="none" 
	d="
M53.994656,89.488228 
	C53.944607,89.480614 54.105278,89.455681 54.125618,89.476028 
	C54.145954,89.496376 54.044704,89.495842 53.994656,89.488228 
z"/>
<path fill="#41A71A" opacity="1.000000" stroke="none" 
	d="
M51.372696,71.310738 
	C51.390987,71.200111 51.558956,71.133331 51.862785,71.041260 
	C51.885159,71.187668 51.726398,71.300537 51.372696,71.310738 
z"/>
<path fill="#43AD1A" opacity="1.000000" stroke="none" 
	d="
M36.069012,85.282852 
	C36.250862,85.282051 36.448795,85.559486 36.786110,86.051155 
	C36.645359,86.030624 36.365223,85.795860 36.069012,85.282852 
z"/>
<path fill="#40A21C" opacity="1.000000" stroke="none" 
	d="
M123.195732,74.589661 
	C123.012566,74.649216 122.867477,74.638718 122.722382,74.628220 
	C122.892853,74.592010 123.063332,74.555801 123.195732,74.589661 
z"/>
<path fill="#4FCC1B" opacity="1.000000" stroke="none" 
	d="
M90.504425,100.502617 
	C90.498520,100.482597 90.510323,100.522636 90.504425,100.502617 
z"/>
<path fill="#44AC1B" opacity="1.000000" stroke="none" 
	d="
M45.252155,85.760338 
	C45.284878,85.693832 45.479397,85.491776 45.835892,85.153259 
	C45.803993,85.220169 45.609352,85.422829 45.252155,85.760338 
z"/>
</svg>