<svg version="1.1" id="Layer_1" xmlns="http://www.w3.org/2000/svg" xmlns:xlink="http://www.w3.org/1999/xlink" x="0px" y="0px"
	 width="100%" viewBox="0 0 176 176" enable-background="new 0 0 176 176" xml:space="preserve">
<path fill="#1F1F1F" opacity="1.000000" stroke="none" 
	d="
M121.000000,177.000000 
	C80.666672,177.000000 40.833340,177.000000 1.000005,177.000000 
	C1.000004,118.333336 1.000004,59.666679 1.000002,1.000013 
	C59.666656,1.000009 118.333313,1.000009 176.999969,1.000004 
	C176.999985,59.666653 176.999985,118.333305 177.000000,176.999969 
	C158.500000,177.000000 140.000000,177.000000 121.000000,177.000000 
M94.097435,45.904205 
	C94.097435,45.904205 94.277672,45.802513 94.051971,45.252048 
	C93.348915,44.572605 92.645859,43.893158 91.630478,42.589691 
	C90.876350,42.107975 90.122215,41.626259 89.040733,40.590889 
	C84.165436,35.826759 79.290131,31.062628 73.652763,25.553804 
	C71.827972,33.972359 70.305458,40.996403 68.317116,48.651127 
	C67.551323,50.782604 66.785522,52.914082 65.522598,55.511299 
	C61.688644,61.672771 57.854683,67.834244 53.419449,74.296349 
	C49.278557,79.546326 45.137669,84.796303 40.430698,90.398163 
	C37.852200,94.901947 35.273701,99.405724 32.231773,104.464516 
	C29.873013,110.951263 28.929300,117.469299 31.895182,124.808174 
	C35.714970,139.018570 53.782871,148.595581 63.139057,149.316376 
	C55.124340,142.416183 51.004192,134.250427 52.245384,123.322205 
	C53.867912,118.893700 55.490440,114.465195 57.647972,109.639679 
	C58.770031,108.030365 59.611404,106.043732 61.104431,104.933090 
	C62.264156,104.070389 64.236862,104.300552 65.672020,104.887383 
	C67.225937,109.252014 68.779861,113.616653 70.605103,118.562851 
	C73.226364,120.761917 75.936165,122.864937 78.448997,125.181610 
	C82.661819,129.065536 86.749123,133.085602 90.993126,137.888062 
	C90.462105,141.423279 89.931076,144.958496 89.386314,148.585190 
	C99.373253,148.558533 106.364471,144.243225 111.017105,136.040543 
	C111.017105,136.040543 111.041840,136.099136 111.869240,136.030746 
	C112.727791,137.906616 114.259766,139.769623 114.295944,141.661224 
	C114.359108,144.963821 113.501907,148.284027 113.022934,151.649353 
	C123.692368,148.577667 132.510330,143.607986 139.432495,134.540710 
	C141.310547,131.032349 143.188599,127.523994 145.578400,123.481003 
	C146.217072,118.265335 146.855759,113.049660 147.552734,107.431145 
	C147.489761,107.137886 147.318481,106.936630 147.046188,106.919777 
	C147.046188,106.919777 147.138565,106.912239 147.138687,106.224678 
	C145.401505,97.202797 141.546371,89.191666 134.944153,82.800362 
	C133.088394,81.003891 130.059982,80.418755 127.491440,79.039169 
	C127.594551,79.108070 127.697670,79.176971 127.800781,79.245880 
	C127.708351,79.225861 127.615913,79.205849 128.029129,79.738144 
	C132.557465,88.180336 133.237518,96.969658 130.030060,106.666023 
	C126.712158,112.158661 122.097221,116.070801 115.320290,118.131302 
	C114.317490,118.286293 113.314682,118.441292 112.311882,118.596275 
	C112.457146,117.733719 112.602417,116.871170 112.956154,115.293411 
	C114.259880,111.860123 115.563606,108.426826 117.226746,104.277336 
	C117.685997,99.843941 118.145241,95.410538 118.625854,90.231087 
	C117.358871,86.152977 116.091888,82.074860 114.779137,77.289406 
	C113.898956,75.344170 113.219231,73.274323 112.101700,71.476631 
	C108.486496,65.661125 104.710457,59.945595 100.495171,53.718143 
	C98.742577,51.443626 96.989990,49.169113 95.004250,46.335197 
	C94.668182,46.131393 94.332123,45.927593 94.097435,45.904205 
z"/>
<path fill="#F8774D" opacity="1.000000" stroke="none" 
	d="
M40.996780,90.046280 
	C45.137669,84.796303 49.278557,79.546326 53.966705,74.358704 
	C55.787212,75.365768 57.055664,77.119438 58.334469,77.127014 
	C68.427460,77.186859 78.524910,76.694664 88.616043,76.808990 
	C97.355690,76.908005 106.088867,77.578728 114.824905,77.996750 
	C116.091888,82.074860 117.358871,86.152977 118.311234,90.641907 
	C104.231766,91.355782 90.467819,91.720581 76.701454,91.917053 
	C73.397003,91.964211 70.081223,91.203995 66.776505,91.248611 
	C59.795982,91.342865 52.820023,91.852409 45.840569,91.889839 
	C44.229317,91.898483 42.611549,90.693039 40.996780,90.046280 
z"/>
<path fill="#F66657" opacity="1.000000" stroke="none" 
	d="
M145.066650,124.015640 
	C143.188599,127.523994 141.310547,131.032349 138.815033,134.680084 
	C131.466003,135.214310 124.734413,135.609177 118.001419,136.002014 
	C118.000000,136.000000 117.996117,135.997192 117.840057,135.730560 
	C115.243156,133.304291 112.831322,131.447922 111.041840,136.099136 
	C111.041840,136.099136 111.017105,136.040543 110.695740,135.974442 
	C107.276649,135.208679 104.126282,133.781845 101.095070,134.001236 
	C97.637726,134.251495 94.286560,135.968719 90.889244,137.048386 
	C86.749123,133.085602 82.661819,129.065536 78.448997,125.181610 
	C75.936165,122.864937 73.226364,120.761917 70.879333,118.265556 
	C85.018272,117.315048 98.882973,116.661835 112.747681,116.008614 
	C112.602417,116.871170 112.457146,117.733719 112.311882,118.596283 
	C113.314682,118.441292 114.317490,118.286293 115.837891,118.401886 
	C118.983459,118.418541 122.015709,117.196465 124.163216,118.093178 
	C130.469604,120.726509 138.487244,117.470963 143.623810,123.834465 
	C143.843063,124.106094 144.574051,123.964661 145.066650,124.015640 
z"/>
<path fill="#F77150" opacity="1.000000" stroke="none" 
	d="
M40.713737,90.222229 
	C42.611549,90.693039 44.229317,91.898483 45.840569,91.889839 
	C52.820023,91.852409 59.795982,91.342865 66.776505,91.248611 
	C70.081223,91.203995 73.397003,91.964211 76.701454,91.917053 
	C90.467819,91.720581 104.231766,91.355782 118.300545,91.014938 
	C118.145241,95.410538 117.685997,99.843941 116.700348,104.551201 
	C112.615585,103.883499 109.084457,102.275925 105.493591,102.129066 
	C95.899696,101.736702 86.266731,102.261711 76.677238,101.818100 
	C72.699425,101.634079 69.024399,101.112999 65.848221,104.044968 
	C64.236862,104.300552 62.264156,104.070389 61.104431,104.933090 
	C59.611404,106.043732 58.770031,108.030365 57.167870,109.716690 
	C56.206539,108.960770 55.725315,108.127838 55.244095,107.294899 
	C55.173058,107.762337 55.102020,108.229774 55.030983,108.697205 
	C47.717163,106.226326 39.670059,108.636772 32.695202,103.909508 
	C35.273701,99.405724 37.852200,94.901947 40.713737,90.222229 
z"/>
<path fill="#F87D49" opacity="1.000000" stroke="none" 
	d="
M114.802017,77.643082 
	C106.088867,77.578728 97.355690,76.908005 88.616043,76.808990 
	C78.524910,76.694664 68.427460,77.186859 58.334469,77.127014 
	C57.055664,77.119438 55.787212,75.365768 54.267342,74.208382 
	C57.854683,67.834244 61.688644,61.672771 65.982315,55.506519 
	C68.327820,55.946808 70.198471,56.687992 72.102028,56.785255 
	C79.997887,57.188690 87.906441,57.612583 95.803673,57.511024 
	C97.548523,57.488586 99.266197,55.353706 100.996384,54.191544 
	C104.710457,59.945595 108.486496,65.661125 112.101700,71.476631 
	C113.219231,73.274323 113.898956,75.344170 114.802017,77.643082 
z"/>
<path fill="#F76D53" opacity="1.000000" stroke="none" 
	d="
M65.760117,104.466171 
	C69.024399,101.112999 72.699425,101.634079 76.677238,101.818100 
	C86.266731,102.261711 95.899696,101.736702 105.493591,102.129066 
	C109.084457,102.275925 112.615585,103.883499 116.520638,104.909302 
	C115.563606,108.426826 114.259880,111.860123 112.851913,115.651016 
	C98.882973,116.661835 85.018272,117.315048 70.743668,117.974777 
	C68.779861,113.616653 67.225937,109.252014 65.760117,104.466171 
z"/>
<path fill="#F66B54" opacity="1.000000" stroke="none" 
	d="
M32.463486,104.187012 
	C39.670059,108.636772 47.717163,106.226326 55.030983,108.697205 
	C55.102020,108.229774 55.173058,107.762337 55.244095,107.294899 
	C55.725315,108.127838 56.206539,108.960770 56.900368,109.915199 
	C55.490440,114.465195 53.867912,118.893700 51.617233,123.660324 
	C44.592148,124.022835 38.195217,124.047234 31.798283,124.071625 
	C28.929300,117.469299 29.873013,110.951263 32.463486,104.187012 
z"/>
<path fill="#F98445" opacity="1.000000" stroke="none" 
	d="
M100.745773,53.954842 
	C99.266197,55.353706 97.548523,57.488586 95.803673,57.511024 
	C87.906441,57.612583 79.997887,57.188690 72.102028,56.785255 
	C70.198471,56.687992 68.327820,55.946808 66.230881,55.273651 
	C66.785522,52.914082 67.551323,50.782604 68.812500,48.162560 
	C71.568634,44.015465 75.107346,43.942688 78.890076,43.923969 
	C82.545609,43.905884 86.729408,45.231209 89.368088,41.144547 
	C90.122215,41.626259 90.876350,42.107975 91.865593,43.204437 
	C92.826363,44.480293 93.552017,45.141403 94.277672,45.802513 
	C94.277672,45.802513 94.097435,45.904205 94.247513,46.016609 
	C94.677528,46.384209 94.957458,46.639404 95.237396,46.894600 
	C96.989990,49.169113 98.742577,51.443626 100.745773,53.954842 
z"/>
<path fill="#F26257" opacity="1.000000" stroke="none" 
	d="
M31.846733,124.439896 
	C38.195217,124.047234 44.592148,124.022835 51.452164,123.995621 
	C51.004192,134.250427 55.124340,142.416183 63.139057,149.316376 
	C53.782871,148.595581 35.714970,139.018570 31.846733,124.439896 
z"/>
<path fill="#F46A53" opacity="1.000000" stroke="none" 
	d="
M145.322525,123.748322 
	C144.574051,123.964661 143.843063,124.106094 143.623810,123.834465 
	C138.487244,117.470963 130.469604,120.726509 124.163216,118.093178 
	C122.015709,117.196465 118.983459,118.418541 116.178505,118.425522 
	C122.097221,116.070801 126.712158,112.158661 130.503448,106.511459 
	C132.403976,106.676369 134.311264,107.743378 135.176300,107.187752 
	C139.227417,104.585655 143.152954,106.294746 147.138565,106.912239 
	C147.138565,106.912239 147.046188,106.919777 147.116776,107.043869 
	C147.284576,107.392342 147.386932,107.614349 147.494431,107.833992 
	C146.855759,113.049660 146.217072,118.265335 145.322525,123.748322 
z"/>
<path fill="#F4714F" opacity="1.000000" stroke="none" 
	d="
M147.138626,106.568459 
	C143.152954,106.294746 139.227417,104.585655 135.176300,107.187752 
	C134.311264,107.743378 132.403976,106.676369 130.690887,106.216370 
	C133.237518,96.969658 132.557465,88.180336 127.800491,79.478699 
	C127.571854,79.219261 127.569458,79.278000 127.569458,79.278000 
	C130.059982,80.418755 133.088394,81.003891 134.944153,82.800362 
	C141.546371,89.191666 145.401505,97.202797 147.138626,106.568459 
z"/>
<path fill="#F15F58" opacity="1.000000" stroke="none" 
	d="
M118.002831,136.004028 
	C124.734413,135.609177 131.466003,135.214310 138.539185,134.881134 
	C132.510330,143.607986 123.692368,148.577667 113.022934,151.649353 
	C113.501907,148.284027 114.359108,144.963821 114.295944,141.661224 
	C114.259766,139.769623 112.727791,137.906616 111.455536,136.064941 
	C112.831322,131.447922 115.243156,133.304291 117.814789,135.747345 
	C117.945595,136.030792 118.002831,136.004028 118.002831,136.004028 
z"/>
<path fill="#F48740" opacity="1.000000" stroke="none" 
	d="
M89.204407,40.867718 
	C86.729408,45.231209 82.545609,43.905884 78.890076,43.923969 
	C75.107346,43.942688 71.568634,44.015465 69.045410,47.847221 
	C70.305458,40.996403 71.827972,33.972359 73.652763,25.553804 
	C79.290131,31.062628 84.165436,35.826759 89.204407,40.867718 
z"/>
<path fill="#F35F5A" opacity="1.000000" stroke="none" 
	d="
M90.941185,137.468231 
	C94.286560,135.968719 97.637726,134.251495 101.095070,134.001236 
	C104.126282,133.781845 107.276649,135.208679 110.726646,135.981918 
	C106.364471,144.243225 99.373253,148.558533 89.386314,148.585190 
	C89.931076,144.958496 90.462105,141.423279 90.941185,137.468231 
z"/>
<path fill="#F48740" opacity="1.000000" stroke="none" 
	d="
M94.164825,45.527283 
	C93.552017,45.141403 92.826363,44.480293 92.021759,43.516449 
	C92.645859,43.893158 93.348915,44.572605 94.164825,45.527283 
z"/>
<path fill="#F4714F" opacity="1.000000" stroke="none" 
	d="
M147.523590,107.632568 
	C147.386932,107.614349 147.284576,107.392342 147.113129,106.997665 
	C147.318481,106.936630 147.489761,107.137886 147.523590,107.632568 
z"/>
<path fill="#F4714F" opacity="1.000000" stroke="none" 
	d="
M127.547668,79.202545 
	C127.615913,79.205849 127.708351,79.225861 127.800781,79.245880 
	C127.697670,79.176971 127.594551,79.108070 127.530449,79.158585 
	C127.569458,79.278000 127.571854,79.219261 127.547668,79.202545 
z"/>
<path fill="#F48740" opacity="1.000000" stroke="none" 
	d="
M95.120819,46.614899 
	C94.957458,46.639404 94.677528,46.384209 94.196823,45.926403 
	C94.332123,45.927593 94.668182,46.131393 95.120819,46.614899 
z"/>
<path fill="#F66657" opacity="1.000000" stroke="none" 
	d="
M118.001419,136.002014 
	C118.002831,136.004028 117.945595,136.030792 117.970856,136.013992 
	C117.996117,135.997192 118.000000,136.000000 118.001419,136.002014 
z"/>
</svg>