<svg version="1.1" id="Layer_1" xmlns="http://www.w3.org/2000/svg" xmlns:xlink="http://www.w3.org/1999/xlink" x="0px" y="0px"
	 width="100%" viewBox="0 0 160 160" enable-background="new 0 0 160 160" xml:space="preserve">
<path fill="#000001" opacity="1.000000" stroke="none" 
	d="
M87.000000,161.000000 
	C58.000004,161.000000 29.500008,161.000000 1.000008,161.000000 
	C1.000005,107.666679 1.000005,54.333351 1.000003,1.000022 
	C54.333317,1.000015 107.666634,1.000015 160.999969,1.000007 
	C160.999969,54.333313 160.999969,107.666626 160.999985,160.999969 
	C136.500000,161.000000 112.000000,161.000000 87.000000,161.000000 
M23.496231,48.094078 
	C23.157127,48.340096 23.107328,48.634911 23.202600,49.900753 
	C23.275679,54.266380 23.348755,58.632011 23.223436,63.877281 
	C23.289122,66.284065 23.354807,68.690857 23.221785,71.976433 
	C23.301464,74.691002 23.381145,77.405563 23.244658,81.013985 
	C23.304871,86.341095 23.365086,91.668198 23.223753,97.900841 
	C23.291693,101.927521 23.359632,105.954193 23.254457,110.483231 
	C23.290827,110.656570 23.327196,110.829910 23.155981,111.685493 
	C23.760868,112.763138 24.365755,113.840775 25.475103,115.390083 
	C34.018078,120.247932 42.561054,125.105774 51.524017,130.493408 
	C61.357792,135.976944 71.191566,141.460480 81.737000,147.015900 
	C96.499840,138.366486 111.262680,129.717072 126.731293,120.958626 
	C130.491302,118.647621 134.251328,116.336624 138.446533,113.322327 
	C138.391968,102.890808 138.337402,92.459290 138.506226,81.226685 
	C138.529892,71.294250 138.660248,61.359734 138.467026,51.431515 
	C138.436554,49.865990 136.942398,48.328953 135.739670,46.248661 
	C134.191467,45.484070 132.643250,44.719479 130.720993,43.372749 
	C127.497711,41.873657 124.274429,40.374561 120.912476,38.199059 
	C117.333229,36.041458 113.753975,33.883854 109.763245,31.202963 
	C107.554665,30.036068 105.346085,28.869173 102.724129,27.189014 
	C101.146416,26.496277 99.568703,25.803539 97.369904,24.858143 
	C95.932961,23.896639 94.496025,22.935135 92.703369,21.384735 
	C88.794670,19.312550 84.885979,17.240362 80.277031,15.126672 
	C70.782944,20.674650 61.288853,26.222628 51.111168,31.947250 
	C42.081467,37.296288 33.051769,42.645325 24.009697,47.969788 
	C24.009697,47.969788 23.981802,47.971638 23.496231,48.094078 
z"/>
<path fill="#9051F8" opacity="1.000000" stroke="none" 
	d="
M51.794765,31.770605 
	C61.288853,26.222628 70.782944,20.674650 80.626274,15.603489 
	C80.995232,21.047966 81.014946,26.015629 81.025368,31.428104 
	C81.020271,34.243782 81.024467,36.614643 81.022095,39.414726 
	C81.676537,42.227501 82.337540,44.611057 83.000580,47.317410 
	C83.007454,48.070427 83.012299,48.500645 82.796738,48.863930 
	C82.009514,48.868244 81.442680,48.939495 80.517502,49.006310 
	C79.439842,49.001110 78.720535,49.000347 77.973534,48.646343 
	C75.302864,46.189655 72.659874,44.086205 69.777588,41.743908 
	C67.698067,40.662807 65.857841,39.820553 63.826740,38.699654 
	C59.812336,36.338181 55.988808,34.255352 52.072021,32.072624 
	C51.978760,31.972729 51.794765,31.770605 51.794765,31.770605 
z"/>
<path fill="#773BE7" opacity="1.000000" stroke="none" 
	d="
M138.282837,82.027771 
	C138.337402,92.459290 138.391968,102.890808 137.941559,113.519966 
	C135.956955,112.820396 134.477310,111.923195 132.716461,110.873337 
	C131.294968,110.138718 130.154678,109.556740 128.733292,108.793968 
	C126.298241,107.411774 124.144302,106.210365 121.709946,104.820786 
	C117.962196,102.404678 114.494873,100.176735 111.021225,97.726936 
	C111.014900,97.505074 111.024483,97.061272 111.312660,96.875999 
	C120.070213,91.800186 128.539597,86.909637 137.327454,82.019966 
	C137.858231,82.023155 138.070541,82.025467 138.282837,82.027771 
z"/>
<path fill="#8344F6" opacity="1.000000" stroke="none" 
	d="
M138.394531,81.627228 
	C138.070541,82.025467 137.858231,82.023155 137.252258,81.681694 
	C134.246674,79.552986 131.634720,77.763412 128.785522,75.739220 
	C126.025185,74.021935 123.502121,72.539268 120.679329,70.890182 
	C117.253227,68.765335 114.126862,66.806908 111.000549,64.639572 
	C111.000610,64.430664 111.001038,64.012863 111.307571,63.859550 
	C118.289978,59.703430 125.038361,55.814079 131.594467,51.623898 
	C133.399536,50.470230 134.630569,48.418430 136.125000,46.778740 
	C136.942398,48.328953 138.436554,49.865990 138.467026,51.431515 
	C138.660248,61.359734 138.529892,71.294250 138.394531,81.627228 
z"/>
<path fill="#7F41F4" opacity="1.000000" stroke="none" 
	d="
M81.025330,146.944016 
	C71.191566,141.460480 61.357792,135.976944 51.566154,130.198288 
	C51.776756,129.886887 51.945221,129.870621 52.465385,129.835510 
	C54.615288,129.048157 56.503017,128.438416 58.196182,127.483627 
	C65.484772,123.373535 72.716255,119.162170 80.189804,114.989471 
	C80.411087,114.991264 80.853287,114.972900 80.884010,115.439758 
	C80.970085,120.264351 81.025444,124.622101 81.057220,129.438385 
	C81.043472,133.255173 81.053299,136.613403 81.045456,140.407547 
	C81.026978,142.876984 81.026154,144.910492 81.025330,146.944016 
z"/>
<path fill="#9153F9" opacity="1.000000" stroke="none" 
	d="
M24.022068,47.994358 
	C33.051769,42.645325 42.081467,37.296288 51.452965,31.858929 
	C51.794765,31.770605 51.978760,31.972729 52.019306,32.521774 
	C52.056053,38.037895 52.052254,43.004963 52.036598,48.423386 
	C52.023003,51.577938 52.021259,54.281139 52.014885,57.431248 
	C52.016186,60.264435 52.022114,62.650719 52.010529,65.280113 
	C51.993015,65.523224 51.951908,66.009712 51.583176,66.007378 
	C50.476955,66.003525 49.739471,66.001999 48.981613,65.642471 
	C47.305237,63.524921 45.649227,61.765385 43.713161,59.837074 
	C41.619240,58.450363 39.805374,57.232426 37.690247,55.864258 
	C35.937313,55.126461 34.485645,54.538898 32.839241,53.678902 
	C29.770361,51.602432 26.896214,49.798397 24.022068,47.994358 
z"/>
<path fill="#8648F6" opacity="1.000000" stroke="none" 
	d="
M52.113693,129.854340 
	C51.945221,129.870621 51.776756,129.886887 51.356159,129.933395 
	C42.561054,125.105774 34.018078,120.247932 25.225998,114.856995 
	C24.970610,113.928780 24.964323,113.533653 25.301893,113.042618 
	C32.761650,108.962730 39.877552,104.978729 47.356750,100.978783 
	C49.131371,100.644928 50.542690,100.327019 51.968006,100.471085 
	C52.020943,104.943565 52.059883,108.954071 52.076553,113.424149 
	C52.056713,117.246742 52.059135,120.609772 52.048508,124.395554 
	C52.061531,126.496986 52.087612,128.175659 52.113693,129.854340 
z"/>
<path fill="#985CF8" opacity="1.000000" stroke="none" 
	d="
M81.381165,146.979950 
	C81.026154,144.910492 81.026978,142.876984 81.400894,140.394928 
	C87.515823,134.964478 93.257660,129.982544 99.348846,125.064621 
	C102.732826,126.772934 105.767464,128.417236 109.489113,130.433807 
	C109.716316,127.885742 109.844139,126.452271 110.330276,124.950989 
	C113.021019,123.253952 115.435974,121.729218 117.665001,119.969040 
	C120.453880,117.766777 123.161713,115.447983 125.761032,113.025528 
	C127.014862,111.857010 127.940277,110.336105 129.014404,108.974762 
	C130.154678,109.556740 131.294968,110.138718 132.641541,111.204475 
	C130.573715,114.814720 128.299622,117.941185 126.025520,121.067657 
	C111.262680,129.717072 96.499840,138.366486 81.381165,146.979950 
z"/>
<path fill="#A165FD" opacity="1.000000" stroke="none" 
	d="
M23.427572,109.980873 
	C23.359632,105.954193 23.291693,101.927521 23.640875,97.359009 
	C27.409159,93.869682 30.760323,90.922195 34.462601,87.996948 
	C36.894348,89.660980 38.974983,91.302765 40.900059,93.246368 
	C36.948772,97.413483 33.213314,101.340759 29.330782,105.116806 
	C27.509190,106.888428 25.404154,108.368614 23.427572,109.980873 
z"/>
<path fill="#A164FB" opacity="1.000000" stroke="none" 
	d="
M121.051147,38.875465 
	C124.274429,40.374561 127.497711,41.873657 130.554749,43.732048 
	C129.278061,44.754444 128.071259,45.297722 127.073082,46.100445 
	C121.352592,50.700752 115.681648,55.362675 109.991714,59.542694 
	C109.985641,55.391285 109.981728,51.700874 110.320023,47.939129 
	C114.125206,44.870354 117.588181,41.872910 121.051147,38.875465 
z"/>
<path fill="#995CFC" opacity="1.000000" stroke="none" 
	d="
M23.341015,110.232056 
	C25.404154,108.368614 27.509190,106.888428 29.330782,105.116806 
	C33.213314,101.340759 36.948772,97.413483 41.282295,93.260300 
	C48.724499,94.245178 49.864193,96.012497 46.993450,100.994736 
	C39.877552,104.978729 32.761650,108.962730 25.301720,113.010254 
	C24.957691,113.073792 24.968143,113.013115 24.863918,112.842453 
	C24.604843,112.453331 24.416924,112.268486 24.092148,111.906250 
	C23.840977,111.409607 23.632711,111.178955 23.363567,111.003258 
	C23.327196,110.829910 23.290827,110.656570 23.341015,110.232056 
z"/>
<path fill="#9D60FC" opacity="1.000000" stroke="none" 
	d="
M37.991505,56.014488 
	C39.805374,57.232426 41.619240,58.450363 43.645554,60.172913 
	C41.895493,62.833900 39.931644,64.989059 37.970783,67.146935 
	C34.983223,70.434654 31.997732,73.724274 28.837215,77.280876 
	C27.431700,78.704979 26.200335,79.861282 24.768051,80.926323 
	C24.198364,80.596748 23.829594,80.358444 23.460823,80.120132 
	C23.381145,77.405563 23.301464,74.691002 23.473850,71.706085 
	C27.374613,68.233932 31.176983,65.185760 34.601788,61.760120 
	C36.124207,60.237324 36.885006,57.953098 37.991505,56.014488 
z"/>
<path fill="#995BFC" opacity="1.000000" stroke="none" 
	d="
M109.993881,60.003685 
	C115.681648,55.362675 121.352592,50.700752 127.073082,46.100445 
	C128.071259,45.297722 129.278061,44.754444 130.741776,44.023117 
	C132.643250,44.719479 134.191467,45.484070 135.932343,46.513702 
	C134.630569,48.418430 133.399536,50.470230 131.594467,51.623898 
	C125.038361,55.814079 118.289978,59.703430 111.053558,63.856499 
	C110.323677,64.006302 110.154366,64.005852 109.984650,63.605179 
	C109.987450,62.137859 109.990669,61.070770 109.993881,60.003685 
z"/>
<path fill="#9D60FC" opacity="1.000000" stroke="none" 
	d="
M82.998550,46.994614 
	C82.337540,44.611057 81.676537,42.227501 81.379517,39.398651 
	C84.292831,37.004841 86.936516,35.166237 89.367378,33.079689 
	C92.335281,30.532164 95.124496,27.776470 97.990990,25.110802 
	C99.568703,25.803539 101.146416,26.496277 102.747612,27.750942 
	C98.179024,33.205303 93.586952,38.097736 88.768280,43.224579 
	C86.693962,44.637531 84.846252,45.816074 82.998550,46.994614 
z"/>
<path fill="#A467FD" opacity="1.000000" stroke="none" 
	d="
M97.680450,24.984474 
	C95.124496,27.776470 92.335281,30.532164 89.367378,33.079689 
	C86.936516,35.166237 84.292831,37.004841 81.386078,38.969433 
	C81.024467,36.614643 81.020271,34.243782 81.358231,31.361660 
	C85.486618,27.891478 89.272850,24.932552 93.059090,21.973629 
	C94.496025,22.935135 95.932961,23.896639 97.680450,24.984474 
z"/>
<path fill="#AA6EF9" opacity="1.000000" stroke="none" 
	d="
M120.981812,38.537262 
	C117.588181,41.872910 114.125206,44.870354 110.316010,47.471245 
	C109.965553,42.072578 109.961311,37.070465 110.024887,31.991356 
	C110.092712,31.914362 110.174728,31.726254 110.174728,31.726254 
	C113.753975,33.883854 117.333229,36.041458 120.981812,38.537262 
z"/>
<path fill="#A467FD" opacity="1.000000" stroke="none" 
	d="
M37.690247,55.864258 
	C36.885006,57.953098 36.124207,60.237324 34.601788,61.760120 
	C31.176983,65.185760 27.374613,68.233932 23.573204,71.266693 
	C23.354807,68.690857 23.289122,66.284065 23.656010,63.406319 
	C27.070381,59.940681 30.052177,56.946007 33.033974,53.951336 
	C34.485645,54.538898 35.937313,55.126461 37.690247,55.864258 
z"/>
<path fill="#AC6FFD" opacity="1.000000" stroke="none" 
	d="
M23.352741,80.567062 
	C23.829594,80.358444 24.198364,80.596748 24.960773,81.203049 
	C28.273436,83.705597 31.192459,85.840149 34.111485,87.974701 
	C30.760323,90.922195 27.409159,93.869682 23.741650,96.906242 
	C23.365086,91.668198 23.304871,86.341095 23.352741,80.567062 
z"/>
<path fill="#AA6EF9" opacity="1.000000" stroke="none" 
	d="
M92.881226,21.679182 
	C89.272850,24.932552 85.486618,27.891478 81.367523,30.916845 
	C81.014946,26.015629 80.995232,21.047966 80.976395,15.624241 
	C84.885979,17.240362 88.794670,19.312550 92.881226,21.679182 
z"/>
<path fill="#AC6FFD" opacity="1.000000" stroke="none" 
	d="
M32.839241,53.678902 
	C30.052177,56.946007 27.070381,59.940681 23.755207,62.966496 
	C23.348755,58.632011 23.275679,54.266380 23.450314,49.324440 
	C23.896046,48.527122 23.990637,48.268291 23.981802,47.971638 
	C23.981802,47.971638 24.009697,47.969788 24.015881,47.982071 
	C26.896214,49.798397 29.770361,51.602432 32.839241,53.678902 
z"/>
<path fill="#975AFA" opacity="1.000000" stroke="none" 
	d="
M88.994881,42.990173 
	C93.586952,38.097736 98.179024,33.205303 102.954300,28.007572 
	C105.346085,28.869173 107.554665,30.036068 109.968987,31.464607 
	C110.174728,31.726254 110.092712,31.914362 109.646332,31.981529 
	C106.993134,33.035545 104.700142,33.867901 102.597198,35.040932 
	C98.011780,37.598698 93.523094,40.329865 88.994881,42.990173 
z"/>
<path fill="#965AF6" opacity="1.000000" stroke="none" 
	d="
M126.378403,121.013138 
	C128.299622,117.941185 130.573715,114.814720 132.922760,111.357117 
	C134.477310,111.923195 135.956955,112.820396 137.723969,113.871613 
	C134.251328,116.336624 130.491302,118.647621 126.378403,121.013138 
z"/>
<path fill="#8B55DC" opacity="1.000000" stroke="none" 
	d="
M23.259773,111.344376 
	C23.632711,111.178955 23.840977,111.409607 24.182777,112.083694 
	C24.528128,112.702728 24.725113,112.883049 24.968143,113.013115 
	C24.968143,113.013115 24.957691,113.073792 24.957863,113.106155 
	C24.964323,113.533653 24.970610,113.928780 24.973768,114.621170 
	C24.365755,113.840775 23.760868,112.763138 23.259773,111.344376 
z"/>
<path fill="#8B55DC" opacity="1.000000" stroke="none" 
	d="
M23.739017,48.032860 
	C23.990637,48.268291 23.896046,48.527122 23.522427,48.863327 
	C23.107328,48.634911 23.157127,48.340096 23.739017,48.032860 
z"/>
<path fill="#8A4CF9" opacity="1.000000" stroke="none" 
	d="
M88.768280,43.224579 
	C93.523094,40.329865 98.011780,37.598698 102.597198,35.040932 
	C104.700142,33.867901 106.993134,33.035545 109.578506,32.058521 
	C109.961311,37.070465 109.965553,42.072578 109.973801,47.542580 
	C109.981728,51.700874 109.985641,55.391285 109.991722,59.542694 
	C109.990669,61.070770 109.987450,62.137859 109.751740,63.604584 
	C109.519241,64.004227 109.051750,64.003525 108.732651,63.861237 
	C105.945457,62.477238 103.477364,61.235523 100.771484,59.753712 
	C98.076950,58.318642 95.620178,57.123669 92.959320,55.655407 
	C89.509201,53.231701 86.263176,51.081284 83.017143,48.930866 
	C83.012299,48.500645 83.007454,48.070427 83.000580,47.317413 
	C84.846252,45.816074 86.693962,44.637531 88.768280,43.224579 
z"/>
<path fill="#8C4DF9" opacity="1.000000" stroke="none" 
	d="
M78.001221,48.999580 
	C78.720535,49.000347 79.439842,49.001110 80.547150,49.471668 
	C80.975220,54.950916 81.015297,59.960377 81.037178,65.432922 
	C81.024712,69.588806 81.030449,73.281609 81.024979,77.359116 
	C81.009384,78.514488 81.004997,79.285149 81.001785,80.376205 
	C80.995911,81.123367 80.988869,81.550133 80.652100,81.987083 
	C79.881073,81.997948 79.439774,81.998634 78.928131,81.662292 
	C76.908310,79.880371 74.958832,78.435486 72.817375,76.706497 
	C70.755020,75.606308 68.884644,74.790215 66.792221,73.729584 
	C65.102722,72.623695 63.635262,71.762360 61.959766,70.634354 
	C59.164345,68.582031 56.576965,66.796387 54.164078,64.718338 
	C55.552940,63.306953 56.627380,61.962467 58.005459,61.107269 
	C64.625732,56.998894 71.328041,53.022709 78.001221,48.999580 
z"/>
<path fill="#995CFC" opacity="1.000000" stroke="none" 
	d="
M77.973534,48.646339 
	C71.328041,53.022709 64.625732,56.998894 58.005459,61.107269 
	C56.627380,61.962467 55.552940,63.306953 53.837059,64.718781 
	C52.899715,65.020065 52.463882,65.028534 52.028046,65.037003 
	C52.022114,62.650719 52.016186,60.264435 52.408478,57.435509 
	C61.265251,55.110264 65.816261,48.747379 70.016891,41.982758 
	C72.659874,44.086205 75.302864,46.189655 77.973534,48.646339 
z"/>
<path fill="#A165FD" opacity="1.000000" stroke="none" 
	d="
M69.777588,41.743908 
	C65.816261,48.747379 61.265251,55.110264 52.413109,56.988602 
	C52.021259,54.281139 52.023003,51.577938 52.392204,48.410194 
	C56.512314,44.956535 60.264965,41.967419 64.017616,38.978302 
	C65.857841,39.820553 67.698067,40.662807 69.777588,41.743908 
z"/>
<path fill="#AC6FFD" opacity="1.000000" stroke="none" 
	d="
M63.826740,38.699654 
	C60.264965,41.967419 56.512314,44.956535 52.404057,47.958843 
	C52.052254,43.004963 52.056053,38.037895 52.112564,32.621674 
	C55.988808,34.255352 59.812336,36.338181 63.826740,38.699654 
z"/>
<path fill="#AC6FFD" opacity="1.000000" stroke="none" 
	d="
M81.055382,64.969833 
	C81.015297,59.960377 80.975220,54.950916 80.905502,49.476105 
	C81.442680,48.939495 82.009514,48.868244 82.796738,48.863930 
	C86.263176,51.081284 89.509201,53.231701 92.635513,55.809757 
	C88.695648,59.148209 84.875519,62.059021 81.055382,64.969833 
z"/>
<path fill="#8546F6" opacity="1.000000" stroke="none" 
	d="
M80.981819,81.976906 
	C80.988869,81.550133 80.995911,81.123367 81.373413,80.346352 
	C90.846489,74.665245 99.949120,69.334381 109.051750,64.003525 
	C109.051750,64.003525 109.519241,64.004227 109.752151,64.004822 
	C110.154366,64.005852 110.323677,64.006302 110.747017,64.009811 
	C111.001038,64.012863 111.000610,64.430664 110.736328,64.981621 
	C110.310150,71.024002 110.148270,76.515434 109.974068,82.466949 
	C109.973358,86.618683 109.984955,90.310318 110.004120,94.335953 
	C110.349297,95.467056 110.686890,96.264168 111.024483,97.061272 
	C111.024483,97.061272 111.014900,97.505074 110.687683,97.755035 
	C109.916481,98.044632 109.472488,98.084267 108.845711,97.824539 
	C105.807716,96.002296 102.952507,94.479424 99.892822,92.687744 
	C97.148262,90.923363 94.608185,89.427803 91.826569,87.696518 
	C88.050163,85.632286 84.515297,83.803795 80.988708,81.985977 
	C80.996986,81.996658 80.981819,81.976906 80.981819,81.976906 
z"/>
<path fill="#A165FD" opacity="1.000000" stroke="none" 
	d="
M128.733292,108.793976 
	C127.940277,110.336105 127.014862,111.857010 125.761032,113.025528 
	C123.161713,115.447983 120.453880,117.766777 117.665001,119.969040 
	C115.435974,121.729218 113.021019,123.253952 110.327225,124.494797 
	C109.975166,121.071838 109.984459,118.037270 110.340782,114.937401 
	C114.455330,111.584396 118.222847,108.296677 121.990364,105.008957 
	C124.144302,106.210365 126.298241,107.411774 128.733292,108.793976 
z"/>
<path fill="#995BFC" opacity="1.000000" stroke="none" 
	d="
M111.312660,96.875999 
	C110.686890,96.264168 110.349297,95.467056 110.340218,94.265823 
	C116.786751,87.899078 122.904770,81.936455 129.022781,75.973839 
	C131.634720,77.763412 134.246674,79.552986 136.933792,81.680824 
	C128.539597,86.909637 120.070213,91.800186 111.312660,96.875999 
z"/>
<path fill="#AC6FFD" opacity="1.000000" stroke="none" 
	d="
M121.709946,104.820786 
	C118.222847,108.296677 114.455330,111.584396 110.327942,114.472824 
	C109.665070,109.018684 109.362068,103.963829 109.052460,98.712662 
	C109.045860,98.516350 109.028496,98.123901 109.028496,98.123901 
	C109.472488,98.084267 109.916481,98.044632 110.694008,97.976898 
	C114.494873,100.176735 117.962196,102.404678 121.709946,104.820786 
z"/>
<path fill="#A165FD" opacity="1.000000" stroke="none" 
	d="
M128.785522,75.739220 
	C122.904770,81.936455 116.786751,87.899078 110.332642,93.931824 
	C109.984955,90.310318 109.973358,86.618683 110.315613,82.394417 
	C115.180389,79.285164 119.786972,76.799828 120.979057,71.056602 
	C123.502121,72.539268 126.025185,74.021935 128.785522,75.739220 
z"/>
<path fill="#AC6FFD" opacity="1.000000" stroke="none" 
	d="
M120.679329,70.890182 
	C119.786972,76.799828 115.180389,79.285164 110.327927,81.934326 
	C110.148270,76.515434 110.310150,71.024002 110.736267,65.190521 
	C114.126862,66.806908 117.253227,68.765335 120.679329,70.890182 
z"/>
<path fill="#8647F7" opacity="1.000000" stroke="none" 
	d="
M78.998474,81.999313 
	C79.439774,81.998634 79.881073,81.997948 80.652100,81.987083 
	C80.981819,81.976906 80.996986,81.996658 80.983368,82.455017 
	C81.003700,87.933037 81.037651,92.952705 81.052216,98.427643 
	C81.034180,101.916229 81.035545,104.949539 81.027481,108.421036 
	C81.011780,110.902214 81.005508,112.945221 80.962425,114.987488 
	C80.925613,114.986748 80.853287,114.972900 80.853287,114.972900 
	C80.853287,114.972900 80.411087,114.991264 80.019867,114.701935 
	C77.110779,112.931610 74.592918,111.450600 71.875000,109.695961 
	C69.131157,107.925125 66.587364,106.427925 63.801186,104.700844 
	C60.053631,102.305275 56.548466,100.139580 53.218212,97.696487 
	C55.265972,95.953201 57.138821,94.487320 59.361259,92.953285 
	C66.140053,89.256531 72.569260,85.627922 78.998474,81.999313 
z"/>
<path fill="#995CFC" opacity="1.000000" stroke="none" 
	d="
M72.075050,109.969589 
	C74.592918,111.450600 77.110779,112.931610 79.798584,114.700150 
	C72.716255,119.162170 65.484772,123.373535 58.196182,127.483627 
	C56.503017,128.438416 54.615288,129.048157 52.465389,129.835510 
	C52.087612,128.175659 52.061531,126.496986 52.409584,124.382729 
	C55.116997,122.537056 57.579578,121.300575 59.755939,119.679771 
	C63.947845,116.557907 67.977882,113.218681 72.075050,109.969589 
z"/>
<path fill="#A467FD" opacity="1.000000" stroke="none" 
	d="
M98.999496,125.000610 
	C93.257660,129.982544 87.515823,134.964478 81.418549,139.959015 
	C81.053299,136.613403 81.043472,133.255173 81.417465,129.423279 
	C86.983429,128.201584 88.947456,124.116676 91.291695,120.223495 
	C94.070511,121.898155 96.535004,123.449387 98.999496,125.000610 
z"/>
<path fill="#AC6FFD" opacity="1.000000" stroke="none" 
	d="
M90.977371,120.100075 
	C88.947456,124.116676 86.983429,128.201584 81.441032,128.964722 
	C81.025444,124.622101 80.970085,120.264351 80.884010,115.439758 
	C80.853287,114.972900 80.925613,114.986748 81.242920,114.961060 
	C81.746918,114.914558 81.933594,114.893745 82.419296,115.036285 
	C85.471336,116.833122 88.224350,118.466599 90.977371,120.100075 
z"/>
<path fill="#8D4EF9" opacity="1.000000" stroke="none" 
	d="
M34.462601,87.996948 
	C31.192459,85.840149 28.273436,83.705597 25.161690,81.294319 
	C26.200335,79.861282 27.431700,78.704979 29.208263,77.255775 
	C36.169636,73.308746 42.585812,69.654617 49.001987,66.000473 
	C49.739471,66.001999 50.476955,66.003525 51.598972,66.450943 
	C52.290615,70.944244 52.597725,74.991646 52.759003,79.400146 
	C52.423103,82.168236 52.233036,84.575233 52.033081,87.441658 
	C52.033405,91.280556 52.043613,94.660027 52.039936,98.367874 
	C52.002037,99.133865 51.978024,99.571487 51.954014,100.009117 
	C50.542690,100.327019 49.131371,100.644928 47.356750,100.978783 
	C49.864193,96.012497 48.724499,94.245178 41.437851,92.958481 
	C38.974983,91.302765 36.894348,89.660980 34.462601,87.996948 
z"/>
<path fill="#975AFA" opacity="1.000000" stroke="none" 
	d="
M48.981613,65.642471 
	C42.585812,69.654617 36.169636,73.308746 29.382412,76.987984 
	C31.997732,73.724274 34.983223,70.434654 37.970783,67.146935 
	C39.931644,64.989059 41.895493,62.833900 43.925613,60.341686 
	C45.649227,61.765385 47.305237,63.524921 48.981613,65.642471 
z"/>
<path fill="#AC6FFD" opacity="1.000000" stroke="none" 
	d="
M52.904835,79.039055 
	C52.597725,74.991646 52.290615,70.944244 51.967705,66.453278 
	C51.951908,66.009712 51.993015,65.523224 52.010529,65.280113 
	C52.463882,65.028534 52.899715,65.020065 53.662567,65.011169 
	C56.576965,66.796387 59.164345,68.582031 61.695915,70.872063 
	C58.728344,73.930656 55.816589,76.484856 52.904835,79.039055 
z"/>
<path fill="#A165FD" opacity="1.000000" stroke="none" 
	d="
M71.875000,109.695953 
	C67.977882,113.218681 63.947845,116.557907 59.755939,119.679771 
	C57.579578,121.300575 55.116997,122.537056 52.422638,123.959976 
	C52.059135,120.609772 52.056713,117.246742 52.458805,113.432327 
	C58.096893,112.390228 61.380283,109.091080 64.043571,104.930725 
	C66.587364,106.427925 69.131157,107.925125 71.875000,109.695953 
z"/>
<path fill="#AC6FFD" opacity="1.000000" stroke="none" 
	d="
M63.801186,104.700844 
	C61.380283,109.091080 58.096893,112.390228 52.481071,112.972755 
	C52.059883,108.954071 52.020943,104.943565 51.968006,100.471085 
	C51.978024,99.571487 52.002037,99.133865 52.287014,98.351013 
	C52.547981,98.005783 53.043297,97.973892 53.043297,97.973892 
	C56.548466,100.139580 60.053631,102.305275 63.801186,104.700844 
z"/>
<path fill="#8041F5" opacity="1.000000" stroke="none" 
	d="
M91.291695,120.223495 
	C88.224350,118.466599 85.471336,116.833122 82.494995,114.721405 
	C87.122215,111.190178 91.890549,107.994911 96.849388,105.129326 
	C100.798660,102.847153 104.980476,100.967384 109.059059,98.908981 
	C109.362068,103.963829 109.665070,109.018684 109.980911,114.538116 
	C109.984459,118.037270 109.975166,121.071838 109.968910,124.562607 
	C109.844139,126.452271 109.716316,127.885742 109.489113,130.433807 
	C105.767464,128.417236 102.732826,126.772934 99.348846,125.064621 
	C96.535004,123.449387 94.070511,121.898155 91.291695,120.223495 
z"/>
<path fill="#A165FD" opacity="1.000000" stroke="none" 
	d="
M24.863918,112.842453 
	C24.725113,112.883049 24.528128,112.702728 24.286562,112.294716 
	C24.416924,112.268486 24.604843,112.453331 24.863918,112.842453 
z"/>
<path fill="#A165FD" opacity="1.000000" stroke="none" 
	d="
M81.037178,65.432922 
	C84.875519,62.059021 88.695648,59.148209 92.839600,56.083046 
	C95.620178,57.123669 98.076950,58.318642 100.537598,59.990791 
	C98.941925,61.880196 97.370560,63.325966 95.737534,64.698349 
	C90.850021,68.805771 85.938393,72.884483 81.036186,76.974403 
	C81.030449,73.281609 81.024712,69.588806 81.037178,65.432922 
z"/>
<path fill="#995BFC" opacity="1.000000" stroke="none" 
	d="
M81.024979,77.359116 
	C85.938393,72.884483 90.850021,68.805771 95.737534,64.698349 
	C97.370560,63.325966 98.941925,61.880196 100.775375,60.230888 
	C103.477364,61.235523 105.945457,62.477238 108.732651,63.861233 
	C99.949120,69.334381 90.846489,74.665245 81.372238,80.025963 
	C81.004997,79.285149 81.009384,78.514488 81.024979,77.359116 
z"/>
<path fill="#9D60FC" opacity="1.000000" stroke="none" 
	d="
M53.218208,97.696487 
	C53.043297,97.973892 52.547981,98.005783 52.300903,98.022644 
	C52.043613,94.660027 52.033405,91.280556 52.414333,87.441574 
	C60.055744,85.392181 64.401215,80.629318 67.014267,73.974121 
	C68.884644,74.790215 70.755020,75.606308 72.642868,76.993362 
	C70.422615,79.902824 68.104706,82.170776 65.968445,84.598549 
	C63.564079,87.331009 61.323494,90.207565 59.011669,93.021439 
	C57.138821,94.487320 55.265972,95.953201 53.218208,97.696487 
z"/>
<path fill="#A467FD" opacity="1.000000" stroke="none" 
	d="
M66.792221,73.729584 
	C64.401215,80.629318 60.055744,85.392181 52.424221,86.982162 
	C52.233036,84.575233 52.423103,82.168236 52.759003,79.400146 
	C55.816589,76.484856 58.728344,73.930656 61.903954,71.138733 
	C63.635262,71.762360 65.102722,72.623695 66.792221,73.729584 
z"/>
<path fill="#995BFC" opacity="1.000000" stroke="none" 
	d="
M59.361256,92.953285 
	C61.323494,90.207565 63.564079,87.331009 65.968445,84.598549 
	C68.104706,82.170776 70.422615,79.902824 72.834854,77.277466 
	C74.958832,78.435486 76.908310,79.880371 78.928131,81.662285 
	C72.569260,85.627922 66.140053,89.256531 59.361256,92.953285 
z"/>
<path fill="#995CFC" opacity="1.000000" stroke="none" 
	d="
M109.052460,98.712662 
	C104.980476,100.967384 100.798660,102.847153 96.849388,105.129326 
	C91.890549,107.994911 87.122215,111.190178 82.195969,114.558052 
	C81.933594,114.893745 81.746918,114.914558 81.279739,114.961800 
	C81.005508,112.945221 81.011780,110.902214 81.385635,108.406158 
	C83.855644,106.688721 86.180252,105.683121 88.015442,104.107483 
	C92.170876,100.539764 96.085030,96.691025 100.097298,92.956558 
	C102.952507,94.479424 105.807716,96.002296 108.845711,97.824539 
	C109.028496,98.123901 109.045860,98.516350 109.052460,98.712662 
z"/>
<path fill="#A165FD" opacity="1.000000" stroke="none" 
	d="
M99.892822,92.687744 
	C96.085030,96.691025 92.170876,100.539764 88.015442,104.107483 
	C86.180252,105.683121 83.855644,106.688721 81.395065,107.967979 
	C81.035545,104.949539 81.034180,101.916229 81.406723,98.414543 
	C85.209793,94.608200 88.638954,91.270226 92.068115,87.932251 
	C94.608185,89.427803 97.148262,90.923363 99.892822,92.687744 
z"/>
<path fill="#AC6FFD" opacity="1.000000" stroke="none" 
	d="
M91.826569,87.696510 
	C88.638954,91.270226 85.209793,94.608200 81.426117,97.959274 
	C81.037651,92.952705 81.003700,87.933037 80.975090,82.444336 
	C84.515297,83.803795 88.050163,85.632286 91.826569,87.696510 
z"/>
</svg>