<svg version="1.1" id="Layer_1" xmlns="http://www.w3.org/2000/svg" xmlns:xlink="http://www.w3.org/1999/xlink" x="0px" y="0px"
	 width="100%" viewBox="0 0 160 160" enable-background="new 0 0 160 160" xml:space="preserve">
<path fill="none" opacity="1.000000" stroke="#000000" stroke-linecap="round" stroke-linejoin="round" stroke-width="4.000000"
	d="
M11.500000,6.500000 
	C8.696839,6.814655 6.693394,8.310054 6.035345,11.008619 
	C2.894001,23.890829 1.605629,36.796265 4.320325,50.036839 
	C5.155340,54.109516 7.654736,55.441261 10.533199,56.400364 
	C16.322584,58.329388 22.381897,59.420300 28.500237,59.448280 
	C37.370789,59.488842 46.222702,59.892456 55.037544,57.647408 
	C60.793484,56.181427 62.223618,51.654072 64.469627,47.483643 
	C65.350555,45.847923 65.336365,43.751514 67.000000,42.500000 
"/>
<path fill="none" opacity="1.000000" stroke="#000000" stroke-linecap="round" stroke-linejoin="round" stroke-width="5.000000"
	d="
M23.500000,70.500000 
	C23.013922,79.741699 25.774099,82.381363 35.499451,82.534897 
	C44.408718,82.675552 53.201550,81.277618 61.974224,80.274559 
	C68.470299,79.531792 72.778427,82.262985 76.966064,86.037651 
	C82.330833,90.873360 87.505264,95.943306 93.521782,99.967430 
	C100.819855,104.848709 108.614304,104.498810 116.486542,101.465080 
	C117.188019,101.194748 117.734657,100.450661 117.500000,99.500000 
"/>
<path fill="none" opacity="1.000000" stroke="#000000" stroke-linecap="round" stroke-linejoin="round" stroke-width="4.000000"
	d="
M13.000000,8.000000 
	C15.938223,9.278659 18.609402,9.524441 22.060789,8.782955 
	C27.158825,7.687710 32.732834,7.970607 37.984138,8.626925 
	C45.433502,9.557961 52.950329,10.326289 60.030598,13.430202 
	C69.101891,17.406961 70.665710,20.633793 68.647385,30.530058 
	C67.902390,34.182926 68.162407,38.088322 67.000000,41.750000 
"/>
<path fill="none" opacity="1.000000" stroke="#000000" stroke-linecap="round" stroke-linejoin="round" stroke-width="3.000000"
	d="
M160.500000,38.500000 
	C160.734650,37.549339 160.184937,36.753498 159.487244,36.542088 
	C149.485199,33.511261 139.644043,29.652809 128.999664,29.529079 
	C117.821503,29.399151 113.620102,32.673420 110.516930,43.504852 
	C110.384552,43.966923 110.655235,44.565010 110.477089,44.990406 
	C106.895157,53.543777 108.507286,62.270603 109.452499,71.005142 
	C109.745758,73.715027 111.787788,74.976822 113.548935,75.907387 
	C128.595490,83.857780 143.849014,91.372444 160.500000,95.500000 
"/>
<path fill="none" opacity="1.000000" stroke="#000000" stroke-linecap="round" stroke-linejoin="round" stroke-width="6.000000"
	d="
M68.500000,41.500000 
	C79.777206,41.095688 90.661858,42.534740 101.071022,47.346348 
	C103.236488,48.347324 104.772469,50.715202 107.500000,50.500000 
"/>
<path fill="none" opacity="1.000000" stroke="#000000" stroke-linecap="round" stroke-linejoin="round" stroke-width="11.000000"
	d="
M35.000000,33.500000 
	C36.792740,40.267807 43.815407,43.574795 49.976715,40.454029 
	C50.810104,40.031910 51.485043,39.379269 52.500000,39.500000 
"/>
<path fill="none" opacity="1.000000" stroke="#000000" stroke-linecap="round" stroke-linejoin="round" stroke-width="3.000000"
	d="
M84.500000,54.500000 
	C78.196182,51.387325 71.897110,48.253601 64.500000,50.000000 
"/>
</svg>