<svg version="1.1" id="Layer_1" xmlns="http://www.w3.org/2000/svg" xmlns:xlink="http://www.w3.org/1999/xlink" x="0px" y="0px"
	 width="100%" viewBox="0 0 176 176" enable-background="new 0 0 176 176" xml:space="preserve">
<path fill="#FEFFFF" opacity="1.000000" stroke="none" 
	d="
M114.000000,177.000000 
	C76.000000,177.000000 38.500004,177.000000 1.000005,177.000000 
	C1.000003,118.333336 1.000003,59.666679 1.000002,1.000013 
	C59.666656,1.000009 118.333313,1.000009 176.999969,1.000004 
	C176.999985,59.666653 176.999985,118.333305 177.000000,176.999969 
	C156.166672,177.000000 135.333328,177.000000 114.000000,177.000000 
M145.941284,56.047955 
	C145.941284,56.047955 145.924408,56.195400 146.023163,56.771198 
	C146.412003,57.158272 146.800842,57.545341 147.756638,58.457470 
	C148.213974,64.529335 148.671326,70.601196 149.037384,77.273895 
	C149.221832,77.822044 149.406281,78.370201 149.836563,79.583176 
	C149.866898,80.053917 149.897217,80.524651 149.407028,81.054070 
	C149.217377,81.233795 149.027725,81.413521 148.838089,81.593262 
	C149.353821,81.701508 149.869553,81.809753 150.729507,82.215759 
	C150.889557,82.483368 150.967911,82.773064 150.645523,83.546432 
	C150.393723,83.878769 150.141922,84.211105 149.890121,84.543449 
	C150.693817,84.653938 151.497528,84.764427 152.755051,85.059265 
	C153.028748,85.263138 153.207260,85.530548 152.678864,86.140457 
	C152.737442,86.753975 152.753677,87.891701 152.861099,87.900375 
	C154.006226,87.992874 155.165802,87.906410 156.912827,88.060402 
	C156.508987,89.106560 156.294327,90.286728 155.665939,91.173820 
	C153.758957,93.865906 151.691910,96.444626 149.217651,99.726067 
	C149.184174,104.262848 149.150681,108.799629 149.234604,114.099854 
	C148.168198,116.737198 147.101791,119.374535 145.580215,122.209549 
	C145.295227,122.404282 145.102371,122.666725 144.627945,123.570328 
	C141.446350,125.095406 138.313721,126.633209 139.593842,131.145874 
	C140.749496,135.219727 143.662460,133.067612 146.392944,132.884521 
	C146.652649,132.757935 146.845535,132.564651 147.597260,131.969833 
	C154.871368,128.256638 158.344299,122.516457 157.716583,114.174530 
	C157.406601,110.054893 157.684784,105.846390 158.138855,101.726814 
	C158.567688,97.836189 160.436554,94.693054 164.819138,94.189163 
	C167.876160,93.837685 169.091293,92.274590 169.195328,89.267838 
	C169.303497,86.141411 167.834824,84.558960 164.942902,84.230415 
	C160.461380,83.721275 158.612305,80.619507 158.146927,76.806915 
	C157.605118,72.368073 157.429138,67.826523 157.676331,63.361767 
	C158.160507,54.616997 153.861588,49.252438 146.280624,45.926476 
	C141.277725,43.731583 140.069672,44.427677 138.265564,50.133106 
	C136.629593,51.691048 134.993607,53.248985 132.637589,54.481926 
	C127.173805,50.605465 121.096519,49.052155 114.404335,49.107281 
	C98.311996,49.239841 82.214958,48.974026 66.125931,49.239582 
	C60.565781,49.331348 55.023708,50.518234 48.708805,50.894238 
	C43.272205,50.069946 39.855694,47.422291 40.893955,41.036842 
	C36.108013,41.036842 32.051090,40.928444 28.008015,41.117027 
	C27.058973,41.161293 25.396112,42.159142 25.353596,42.803528 
	C25.020208,47.856541 21.880224,49.482922 17.018250,49.440891 
	C17.018250,58.759884 16.967770,67.711784 17.105728,76.660774 
	C17.117912,77.451111 18.360760,78.222481 19.003403,79.556892 
	C18.914076,79.718887 18.824751,79.880875 18.390539,80.299561 
	C18.188976,80.516899 18.065868,80.772095 17.806055,81.756927 
	C15.924706,82.659332 13.798460,83.264130 12.233941,84.551552 
	C10.796745,85.734207 9.100487,87.656021 9.107467,89.245201 
	C9.114540,90.855476 10.896036,93.669296 12.199795,93.855133 
	C18.193012,94.709419 19.809666,98.689857 20.122688,103.683952 
	C20.413797,108.328407 20.202938,113.001923 20.357800,117.657829 
	C20.660751,126.766136 29.825665,134.710876 38.568829,133.027039 
	C39.304409,132.984329 40.039986,132.941605 40.775562,132.898880 
	C40.075306,132.238907 39.375053,131.578934 38.646240,130.209137 
	C38.694084,129.500671 38.741924,128.792206 39.347679,127.761154 
	C39.564404,127.174614 39.781128,126.588066 40.517109,125.787239 
	C41.012310,125.524864 41.507511,125.262489 42.350784,125.650246 
	C43.690994,125.899864 45.031204,126.149483 46.485657,126.483116 
	C46.485657,126.483116 46.612850,126.545815 46.293148,127.160553 
	C47.196575,127.439812 48.100002,127.719070 49.652863,128.052429 
	C50.439857,128.403824 51.226849,128.755219 52.443741,129.595108 
	C53.289680,129.732437 54.135616,129.869751 55.921318,129.986633 
	C66.293488,130.084778 76.665665,130.182922 87.346146,130.639618 
	C87.884972,130.520493 88.423790,130.401352 89.798683,130.139206 
	C91.207520,130.190781 92.616348,130.242340 94.211189,130.552078 
	C94.211189,130.552078 94.645966,130.614853 94.645966,130.614853 
	C94.645966,130.614853 94.975151,130.292557 95.902832,130.141556 
	C101.617439,130.191986 107.332047,130.242416 113.443275,130.685516 
	C114.280907,130.551041 115.118546,130.416580 116.803444,130.126709 
	C119.795555,129.722488 122.787659,129.318253 126.255951,128.860123 
	C126.575218,128.753662 126.815056,128.552490 127.562813,127.962646 
	C128.362274,127.636673 129.161743,127.310699 130.795792,126.995483 
	C131.743881,126.081787 132.691986,125.168091 133.975693,123.780441 
	C134.957245,122.843384 135.938797,121.906326 137.624207,120.887512 
	C138.079376,119.921730 138.534561,118.955948 139.000000,118.000000 
	C139.000000,118.000000 138.988480,117.992111 139.487366,117.672218 
	C139.659775,117.121460 139.832184,116.570694 140.074951,115.465996 
	C140.158630,115.299744 140.242325,115.133499 140.665115,114.708923 
	C140.862152,114.486206 140.965363,114.226227 141.012909,113.092194 
	C141.405457,109.822762 142.077164,106.558556 142.138596,103.282913 
	C142.328171,93.174187 142.284851,83.061104 142.674362,72.623207 
	C142.523254,72.090866 142.372147,71.558525 142.073868,70.333794 
	C142.059296,69.862434 142.044724,69.391075 142.016434,68.387657 
	C141.772263,67.938332 141.528091,67.489006 141.010666,66.360367 
	C139.536240,63.629135 138.061829,60.897903 137.324402,57.836250 
	C139.119125,56.686352 140.913864,55.536457 143.361237,54.280361 
	C143.917038,54.622372 144.472855,54.964378 145.204010,55.627247 
	C145.361038,55.822662 145.557327,55.963291 145.941284,56.047955 
M84.071236,164.566971 
	C84.375618,164.889435 84.680008,165.211899 84.984390,165.534363 
	C85.165771,165.325043 85.347153,165.115707 85.528534,164.906387 
	C85.018616,164.604660 84.508698,164.302933 83.993271,163.304413 
	C83.666435,162.210449 83.339600,161.116470 83.094818,159.339676 
	C84.345695,157.206757 85.596573,155.073837 87.664246,152.971985 
	C88.481659,152.954758 89.299065,152.937531 90.005562,152.998917 
	C90.005562,152.998917 90.104744,152.906113 89.840927,153.499466 
	C90.015602,155.640625 88.435509,159.048218 93.595772,158.287415 
	C94.510582,159.620163 95.425392,160.952896 96.233521,162.765549 
	C96.498055,162.736771 96.762596,162.707993 97.774879,162.785080 
	C103.241661,161.580048 104.175385,159.708313 101.579086,155.007584 
	C99.042473,150.414902 96.451385,145.852295 93.945229,140.519974 
	C93.280884,139.686325 92.616547,138.852692 91.353096,137.700150 
	C86.257790,135.583511 84.846535,136.416336 84.090614,142.414444 
	C84.202988,142.653839 84.376778,142.833984 84.914307,143.436539 
	C84.946228,143.623383 84.978149,143.810242 84.364861,144.001083 
	C83.591042,144.259689 82.817223,144.518311 81.439278,145.146301 
	C79.393799,148.701706 77.411041,152.295151 75.284111,155.801132 
	C73.390648,158.922272 73.809319,161.370438 77.492813,163.708694 
	C79.662270,163.805389 81.831718,163.902084 84.071236,164.566971 
M150.737488,90.182381 
	C150.623688,90.025269 150.509888,89.868164 150.396088,89.711052 
	C150.418961,89.929474 150.441833,90.147896 150.737488,90.182381 
M73.411362,165.482758 
	C73.411362,165.482758 73.523254,165.415802 73.411362,165.482758 
z"/>
<path fill="#04AAFE" opacity="1.000000" stroke="none" 
	d="
M140.326035,114.967247 
	C140.242325,115.133499 140.158630,115.299744 139.795837,115.905731 
	C139.340637,116.894348 139.164551,117.443230 138.988480,117.992111 
	C138.988480,117.992111 139.000000,118.000000 138.718689,118.140137 
	C137.931702,119.176605 137.426025,120.072937 136.920349,120.969269 
	C135.938797,121.906326 134.957245,122.843384 133.516541,124.179169 
	C132.025345,125.380173 130.993271,126.182457 129.961212,126.984726 
	C129.161743,127.310699 128.362274,127.636673 127.020325,128.102234 
	C126.138474,128.355118 125.905785,128.579178 125.779770,128.914032 
	C122.787659,129.318253 119.795555,129.722488 116.020393,130.122620 
	C114.507111,130.176636 113.776886,130.234741 113.046654,130.292847 
	C107.332047,130.242416 101.617439,130.191986 95.201401,130.150391 
	C94.499977,130.159241 94.025185,130.293915 94.025185,130.293915 
	C92.616348,130.242340 91.207520,130.190781 89.063461,130.127777 
	C87.898102,130.171234 87.467964,130.226151 87.037834,130.281067 
	C76.665665,130.182922 66.293488,130.084778 55.210747,129.783600 
	C53.671398,129.422592 52.842621,129.264603 52.013840,129.106613 
	C51.226849,128.755219 50.439857,128.403824 49.166687,127.781799 
	C47.991291,127.189384 47.302071,126.867599 46.612850,126.545815 
	C46.612850,126.545815 46.485657,126.483116 46.248043,126.208549 
	C44.679478,124.942024 43.348522,123.950073 41.884674,122.668030 
	C41.033623,121.593262 40.315460,120.808578 39.532444,119.762680 
	C38.981506,118.992775 38.495422,118.484093 37.950439,117.609192 
	C36.838245,113.816719 35.784950,110.390472 34.801811,106.647156 
	C34.805027,105.905983 34.738094,105.481880 34.746429,104.614639 
	C34.760456,101.779510 34.699211,99.387520 34.726757,96.535347 
	C34.763798,88.704796 34.712051,81.334419 34.734459,73.733459 
	C34.808617,73.502869 34.702259,73.030243 34.793167,72.695724 
	C34.855602,71.902573 34.827129,71.443932 34.865143,70.744629 
	C34.931633,70.503967 34.841084,70.012886 34.920647,69.762894 
	C34.998741,69.338005 34.997276,69.163109 35.203529,68.802780 
	C35.524296,68.091591 35.637344,67.565849 35.879593,66.698105 
	C38.506527,59.536816 43.303528,54.760841 49.473377,51.204891 
	C55.023708,50.518234 60.565781,49.331348 66.125931,49.239582 
	C82.214958,48.974026 98.311996,49.239841 114.404335,49.107281 
	C121.096519,49.052155 127.173805,50.605465 133.050171,54.843624 
	C134.504288,56.192440 135.545853,57.179558 136.587418,58.166672 
	C138.061829,60.897903 139.536240,63.629135 141.112930,66.967667 
	C141.486847,68.023216 141.758514,68.471466 142.030167,68.919716 
	C142.044724,69.391075 142.059296,69.862434 142.075165,71.001709 
	C142.161621,72.096313 142.246796,72.523010 142.331970,72.949707 
	C142.284851,83.061104 142.328171,93.174187 142.138596,103.282913 
	C142.077164,106.558556 141.405457,109.822762 140.804871,113.627655 
	C140.340454,114.375214 140.250198,114.643265 140.326035,114.967247 
M112.015717,83.323502 
	C111.642059,82.561989 111.268410,81.800468 110.729485,80.383385 
	C105.541435,73.814774 95.037956,70.440994 87.461327,73.296494 
	C86.248123,73.753731 85.039955,76.020370 84.995651,77.485794 
	C84.745003,85.776779 84.720772,94.082191 84.956749,102.373085 
	C84.997414,103.801453 86.572670,106.327988 87.584373,106.403633 
	C94.752342,106.939568 102.256859,108.319107 108.575546,101.846642 
	C109.028404,101.225616 109.481262,100.604591 110.449371,99.629509 
	C110.981941,99.077682 111.514511,98.525856 112.201797,98.727409 
	C112.751823,103.618301 116.635834,106.923485 122.873306,107.808578 
	C127.883842,108.519569 132.584274,106.090508 134.409088,101.847183 
	C136.534195,96.905594 135.243271,91.533936 130.793243,88.593956 
	C128.475998,87.063019 125.525330,86.490677 123.208633,84.959145 
	C121.824921,84.044411 121.114479,82.111244 120.101402,80.635872 
	C121.695343,80.057335 123.318115,78.955879 124.875412,79.041779 
	C126.560272,79.134705 128.127640,80.638687 129.851898,80.959679 
	C131.283752,81.226234 133.520065,81.190605 134.206223,80.333328 
	C134.917847,79.444237 134.801727,76.842659 133.991699,75.968620 
	C130.606522,72.315872 126.163635,71.125000 121.265305,72.021187 
	C117.001312,72.801315 114.766945,75.646111 113.722588,79.702072 
	C113.344406,81.170822 112.598061,82.544777 111.993332,83.988731 
	C111.993332,83.988731 112.029160,83.982285 112.015717,83.323502 
M72.023972,88.268433 
	C71.914993,88.394218 71.822166,88.542419 71.690765,88.637085 
	C71.615974,88.690987 71.391106,88.687798 71.381065,88.659004 
	C69.857864,84.288284 68.554230,79.824135 66.728912,75.584541 
	C66.066849,74.046799 64.297829,72.369011 62.767624,72.055733 
	C61.867153,71.871376 59.924046,74.038719 59.351707,75.501259 
	C57.561054,80.077042 56.198944,84.820526 54.462151,90.137688 
	C52.772392,85.109406 51.339104,80.711388 49.810730,76.346657 
	C48.909588,73.773170 47.626450,70.596214 44.414497,72.354378 
	C42.921585,73.171570 41.824791,76.936623 42.363949,78.855171 
	C44.643303,86.966011 47.445015,94.945839 50.437332,102.828720 
	C51.132519,104.660103 53.327358,105.922218 54.832161,107.446266 
	C56.181873,105.760994 58.000938,104.266983 58.782097,102.350029 
	C60.335503,98.537971 61.317665,94.493149 62.535854,90.544495 
	C64.996117,95.131371 66.196198,99.592758 67.907944,103.848320 
	C68.459747,105.220131 70.364250,106.904808 71.638695,106.895561 
	C72.999107,106.885689 75.114769,105.304260 75.574455,103.956520 
	C78.567490,95.181282 81.398750,86.335251 83.752441,77.373062 
	C84.140564,75.895248 81.917740,73.731735 80.901558,71.885117 
	C79.310913,73.001823 76.953842,73.779030 76.279411,75.301582 
	C74.548523,79.209167 73.564659,83.447662 72.023972,88.268433 
z"/>
<path fill="#0BABFC" opacity="1.000000" stroke="none" 
	d="
M146.035385,122.011871 
	C147.101791,119.374535 148.168198,116.737198 149.374786,113.331406 
	C149.572388,108.064476 149.629807,103.565987 149.687210,99.067497 
	C151.691910,96.444626 153.758957,93.865906 155.665939,91.173820 
	C156.294327,90.286728 156.508987,89.106560 156.434830,87.712898 
	C155.068085,86.864090 154.179352,86.362793 153.290604,85.861488 
	C153.207260,85.530548 153.028748,85.263138 152.438263,84.693008 
	C151.735840,83.912781 151.350204,83.498810 150.964569,83.084846 
	C150.967911,82.773064 150.889557,82.483368 150.494446,81.810814 
	C150.148788,81.269043 150.038177,81.132217 149.927551,80.995392 
	C149.897217,80.524651 149.866898,80.053917 149.766785,78.958359 
	C149.507568,77.780045 149.318115,77.226555 149.128677,76.673058 
	C148.671326,70.601196 148.213974,64.529335 147.423355,57.911980 
	C146.701523,56.976128 146.312958,56.585762 145.924408,56.195400 
	C145.924408,56.195400 145.941284,56.047955 145.826523,55.849632 
	C145.565323,55.375439 145.337616,55.260468 145.028656,55.306389 
	C144.472855,54.964378 143.917038,54.622372 142.832489,54.103931 
	C141.214066,52.617142 140.124390,51.306782 139.034729,49.996422 
	C140.069672,44.427677 141.277725,43.731583 146.280624,45.926476 
	C153.861588,49.252438 158.160507,54.616997 157.676331,63.361767 
	C157.429138,67.826523 157.605118,72.368073 158.146927,76.806915 
	C158.612305,80.619507 160.461380,83.721275 164.942902,84.230415 
	C167.834824,84.558960 169.303497,86.141411 169.195328,89.267838 
	C169.091293,92.274590 167.876160,93.837685 164.819138,94.189163 
	C160.436554,94.693054 158.567688,97.836189 158.138855,101.726814 
	C157.684784,105.846390 157.406601,110.054893 157.716583,114.174530 
	C158.344299,122.516457 154.871368,128.256638 147.063385,132.142609 
	C146.260605,132.472122 146.081696,132.699615 145.992767,132.997894 
	C143.662460,133.067612 140.749496,135.219727 139.593842,131.145874 
	C138.313721,126.633209 141.446350,125.095406 145.069946,123.225266 
	C145.686417,122.590759 145.860901,122.301315 146.035385,122.011871 
z"/>
<path fill="#0BABFC" opacity="1.000000" stroke="none" 
	d="
M37.916466,132.966827 
	C29.825665,134.710876 20.660751,126.766136 20.357800,117.657829 
	C20.202938,113.001923 20.413797,108.328407 20.122688,103.683952 
	C19.809666,98.689857 18.193012,94.709419 12.199795,93.855133 
	C10.896036,93.669296 9.114540,90.855476 9.107467,89.245201 
	C9.100487,87.656021 10.796745,85.734207 12.233941,84.551552 
	C13.798460,83.264130 15.924706,82.659332 18.120888,81.307549 
	C18.736712,80.660324 18.836613,80.388557 18.735424,80.042870 
	C18.824751,79.880875 18.914076,79.718887 19.289909,78.953003 
	C19.846249,74.222183 19.895861,70.065742 20.443972,65.976112 
	C21.070492,61.301434 22.140388,56.686180 23.251434,51.947216 
	C23.646873,51.564632 23.808504,51.279934 23.987335,50.998573 
	C24.004536,51.001907 23.993700,50.968582 24.224709,50.888321 
	C24.752066,50.616352 24.914339,50.344585 25.224846,49.885704 
	C26.068943,49.215717 26.630728,48.652782 27.483345,48.033459 
	C28.139297,47.574635 28.504419,47.172199 29.224945,46.801323 
	C31.401890,46.123974 33.223431,45.415066 35.270897,44.755707 
	C35.496826,44.805252 35.946331,44.695988 36.287178,44.839493 
	C39.601158,48.762348 39.473141,51.872032 35.571056,53.762596 
	C30.773844,56.086857 28.851130,59.690403 28.695221,65.104019 
	C28.405972,70.303825 28.320206,75.126801 28.120991,80.274933 
	C26.963032,82.318687 25.918518,84.037277 24.567715,85.857285 
	C23.410467,86.599388 22.559511,87.240074 21.409172,87.970871 
	C21.367176,89.044395 21.327969,90.309731 21.941214,90.954910 
	C23.397846,92.487389 25.163477,93.726158 26.903322,95.491074 
	C27.429354,97.952255 28.056416,99.988228 28.240635,102.063499 
	C28.598682,106.096954 28.708193,110.152466 28.875591,114.575401 
	C29.567167,116.963127 30.303812,118.974289 31.139160,121.300552 
	C32.479263,122.441727 33.720661,123.267807 35.133591,124.320625 
	C36.101818,125.048195 36.898510,125.549019 37.776466,126.334946 
	C38.168411,127.107948 38.479088,127.595840 38.789764,128.083740 
	C38.741924,128.792206 38.694084,129.500671 38.468136,130.767761 
	C38.165508,131.873184 38.040989,132.420013 37.916466,132.966827 
z"/>
<path fill="#FEFEFE" opacity="1.000000" stroke="none" 
	d="
M24.874004,85.755875 
	C25.918518,84.037277 26.963032,82.318687 28.371498,79.953201 
	C28.789869,74.446594 28.844286,69.586891 28.898701,64.727188 
	C28.851130,59.690403 30.773844,56.086857 35.571056,53.762596 
	C39.473141,51.872032 39.601158,48.762348 36.197193,44.719627 
	C35.461575,44.300198 35.221111,44.383499 35.044968,44.706161 
	C33.223431,45.415066 31.401890,46.123974 28.921295,46.550026 
	C27.589920,46.228275 26.917601,46.189381 26.245279,46.150482 
	C26.561024,46.796936 26.876768,47.443390 27.192513,48.089844 
	C26.630728,48.652782 26.068943,49.215717 25.018564,49.996422 
	C24.273811,50.410618 24.095055,50.662086 23.993700,50.968582 
	C23.993700,50.968582 24.004536,51.001907 23.772228,51.116417 
	C23.274311,51.443604 23.100214,51.714996 23.017626,52.045105 
	C22.140388,56.686180 21.070492,61.301434 20.443972,65.976112 
	C19.895861,70.065742 19.846249,74.222183 19.304218,78.675888 
	C18.360760,78.222481 17.117912,77.451111 17.105728,76.660774 
	C16.967770,67.711784 17.018250,58.759884 17.018250,49.440891 
	C21.880224,49.482922 25.020208,47.856541 25.353596,42.803528 
	C25.396112,42.159142 27.058973,41.161293 28.008015,41.117027 
	C32.051090,40.928444 36.108013,41.036842 40.893955,41.036842 
	C39.855694,47.422291 43.272205,50.069946 49.091091,51.049564 
	C43.303528,54.760841 38.506527,59.536816 35.675266,66.881485 
	C35.226433,67.933983 35.111122,68.461098 34.995811,68.988220 
	C34.997276,69.163109 34.998741,69.338005 34.776180,69.851196 
	C34.497715,70.287445 34.372719,70.425156 34.401489,70.476181 
	C34.506027,70.661591 34.662052,70.817970 34.798656,70.985298 
	C34.827129,71.443932 34.855602,71.902573 34.664474,72.782967 
	C34.263504,73.515137 34.335316,73.768242 34.660305,73.964050 
	C34.712051,81.334419 34.763798,88.704796 34.382645,96.549240 
	C32.313210,97.682213 30.676672,98.341110 29.060776,98.645538 
	C30.067842,95.982697 29.697172,94.637802 26.804241,95.083611 
	C25.163477,93.726158 23.397846,92.487389 21.941214,90.954910 
	C21.327969,90.309731 21.367176,89.044395 21.790386,88.004791 
	C23.649473,87.948616 24.827965,87.948616 26.333014,87.948616 
	C25.689791,86.981918 25.281898,86.368896 24.874004,85.755875 
z"/>
<path fill="#09AAFC" opacity="1.000000" stroke="none" 
	d="
M96.340202,162.285645 
	C95.425392,160.952896 94.510582,159.620163 93.282463,157.796570 
	C92.014351,155.839203 91.059547,154.372665 90.104736,152.906113 
	C90.104744,152.906113 90.005562,152.998917 90.003418,152.612396 
	C88.337540,149.482956 86.673805,146.740021 85.010078,143.997101 
	C84.978149,143.810242 84.946228,143.623383 84.741409,142.999084 
	C84.442223,142.313187 84.247864,142.141998 83.985443,142.048035 
	C84.846535,136.416336 86.257790,135.583511 91.710953,138.178436 
	C92.673943,139.529968 93.279076,140.403229 93.884216,141.276489 
	C96.451385,145.852295 99.042473,150.414902 101.579086,155.007584 
	C104.175385,159.708313 103.241661,161.580048 97.262985,162.575165 
	C96.751099,162.365250 96.340202,162.285645 96.340202,162.285645 
z"/>
<path fill="#FEFEFE" opacity="1.000000" stroke="none" 
	d="
M29.040133,99.000000 
	C30.676672,98.341110 32.313210,97.682213 34.293861,97.009430 
	C34.699211,99.387520 34.760456,101.779510 34.574219,104.772110 
	C34.461716,105.903221 34.596687,106.433723 34.731655,106.964226 
	C35.784950,110.390472 36.838245,113.816719 37.967598,117.902252 
	C38.561539,119.048988 39.079422,119.536438 39.597305,120.023895 
	C40.315460,120.808578 41.033623,121.593262 41.878563,123.008316 
	C42.004463,124.092499 42.003590,124.546303 42.002712,125.000107 
	C41.507511,125.262489 41.012310,125.524864 39.874161,125.896362 
	C38.719212,126.020279 38.207203,126.035057 37.695198,126.049843 
	C36.898510,125.549019 36.101818,125.048195 35.135056,123.933304 
	C33.656803,122.541313 32.348629,121.763390 31.040455,120.985458 
	C30.303812,118.974289 29.567167,116.963127 28.914665,114.093445 
	C29.012585,108.489960 29.026358,103.744980 29.040133,99.000000 
z"/>
<path fill="#0BA9FC" opacity="1.000000" stroke="none" 
	d="
M77.030441,163.224564 
	C73.809319,161.370438 73.390648,158.922272 75.284111,155.801132 
	C77.411041,152.295151 79.393799,148.701706 81.994995,145.197113 
	C83.982964,147.812256 85.415207,150.376587 86.847450,152.940918 
	C85.596573,155.073837 84.345695,157.206757 82.777512,159.898926 
	C80.650284,161.380295 78.840363,162.302429 77.030441,163.224564 
z"/>
<path fill="#F2F8FC" opacity="1.000000" stroke="none" 
	d="
M138.650146,50.064766 
	C140.124390,51.306782 141.214066,52.617142 142.506165,54.157028 
	C140.913864,55.536457 139.119125,56.686352 136.955902,58.001465 
	C135.545853,57.179558 134.504288,56.192440 133.410187,55.006126 
	C134.993607,53.248985 136.629593,51.691048 138.650146,50.064766 
z"/>
<path fill="#F2F8FC" opacity="1.000000" stroke="none" 
	d="
M87.255844,152.956451 
	C85.415207,150.376587 83.982964,147.812256 82.297058,145.012421 
	C82.817223,144.518311 83.591042,144.259689 84.687469,143.999084 
	C86.673805,146.740021 88.337540,149.482956 90.058868,152.573090 
	C89.299065,152.937531 88.481659,152.954758 87.255844,152.956451 
z"/>
<path fill="#F2F8FC" opacity="1.000000" stroke="none" 
	d="
M77.261627,163.466629 
	C78.840363,162.302429 80.650284,161.380295 82.736488,160.240326 
	C83.339600,161.116470 83.666435,162.210449 83.996635,163.652206 
	C84.000000,164.000000 84.001175,163.998779 84.001175,163.998779 
	C81.831718,163.902084 79.662270,163.805389 77.261627,163.466629 
z"/>
<path fill="#F2F8FC" opacity="1.000000" stroke="none" 
	d="
M149.452423,99.396782 
	C149.629807,103.565987 149.572388,108.064476 149.316086,112.949692 
	C149.150681,108.799629 149.184174,104.262848 149.452423,99.396782 
z"/>
<path fill="#F2F8FC" opacity="1.000000" stroke="none" 
	d="
M89.972832,153.202789 
	C91.059547,154.372665 92.014351,155.839203 93.018867,157.638733 
	C88.435509,159.048218 90.015602,155.640625 89.972832,153.202789 
z"/>
<path fill="#F2F8FC" opacity="1.000000" stroke="none" 
	d="
M42.176750,125.325180 
	C42.003590,124.546303 42.004463,124.092499 42.011456,123.298401 
	C43.348522,123.950073 44.679478,124.942024 46.190926,126.166542 
	C45.031204,126.149483 43.690994,125.899864 42.176750,125.325180 
z"/>
<path fill="#F2F8FC" opacity="1.000000" stroke="none" 
	d="
M152.984741,86.000977 
	C154.179352,86.362793 155.068085,86.864090 156.139130,87.617249 
	C155.165802,87.906410 154.006226,87.992874 152.861099,87.900375 
	C152.753677,87.891701 152.737442,86.753975 152.984741,86.000977 
z"/>
<path fill="#F2F8FC" opacity="1.000000" stroke="none" 
	d="
M38.242649,132.996933 
	C38.040989,132.420013 38.165508,131.873184 38.482414,131.122650 
	C39.375053,131.578934 40.075306,132.238907 40.775566,132.898880 
	C40.039986,132.941605 39.304409,132.984329 38.242649,132.996933 
z"/>
<path fill="#F2F8FC" opacity="1.000000" stroke="none" 
	d="
M130.378510,126.990112 
	C130.993271,126.182457 132.025345,125.380173 133.348740,124.416145 
	C132.691986,125.168091 131.743881,126.081787 130.378510,126.990112 
z"/>
<path fill="#F2F8FC" opacity="1.000000" stroke="none" 
	d="
M93.914719,140.898224 
	C93.279076,140.403229 92.673943,139.529968 92.010498,138.337875 
	C92.616547,138.852692 93.280884,139.686325 93.914719,140.898224 
z"/>
<path fill="#F2F8FC" opacity="1.000000" stroke="none" 
	d="
M46.452999,126.853180 
	C47.302071,126.867599 47.991291,127.189384 48.841972,127.754745 
	C48.100002,127.719070 47.196575,127.439812 46.452999,126.853180 
z"/>
<path fill="#F2F8FC" opacity="1.000000" stroke="none" 
	d="
M137.272278,120.928391 
	C137.426025,120.072937 137.931702,119.176605 138.713562,118.135223 
	C138.534561,118.955948 138.079376,119.921730 137.272278,120.928391 
z"/>
<path fill="#F2F8FC" opacity="1.000000" stroke="none" 
	d="
M150.805054,83.315643 
	C151.350204,83.498810 151.735840,83.912781 152.211349,84.600830 
	C151.497528,84.764427 150.693817,84.653938 149.890121,84.543449 
	C150.141922,84.211105 150.393723,83.878769 150.805054,83.315643 
z"/>
<path fill="#F2F8FC" opacity="1.000000" stroke="none" 
	d="
M83.999390,164.000610 
	C84.508698,164.302933 85.018616,164.604660 85.528534,164.906387 
	C85.347153,165.115707 85.165771,165.325043 84.984390,165.534363 
	C84.680008,165.211899 84.375618,164.889435 84.036209,164.282867 
	C84.001175,163.998779 84.000000,164.000000 83.999390,164.000610 
z"/>
<path fill="#F2F8FC" opacity="1.000000" stroke="none" 
	d="
M37.776466,126.334946 
	C38.207203,126.035057 38.719212,126.020279 39.614532,126.003510 
	C39.781128,126.588066 39.564404,127.174614 39.068722,127.922447 
	C38.479088,127.595840 38.168411,127.107948 37.776466,126.334946 
z"/>
<path fill="#F2F8FC" opacity="1.000000" stroke="none" 
	d="
M113.244965,130.489182 
	C113.776886,130.234741 114.507111,130.176636 115.596756,130.200317 
	C115.118546,130.416580 114.280907,130.551041 113.244965,130.489182 
z"/>
<path fill="#F2F8FC" opacity="1.000000" stroke="none" 
	d="
M52.228790,129.350861 
	C52.842621,129.264603 53.671398,129.422592 54.740868,129.793823 
	C54.135616,129.869751 53.289680,129.732437 52.228790,129.350861 
z"/>
<path fill="#F2F8FC" opacity="1.000000" stroke="none" 
	d="
M150.601089,90.274353 
	C150.441833,90.147896 150.418961,89.929474 150.396088,89.711052 
	C150.509888,89.868164 150.623688,90.025269 150.601089,90.274353 
z"/>
<path fill="#F2F8FC" opacity="1.000000" stroke="none" 
	d="
M142.503174,72.786453 
	C142.246796,72.523010 142.161621,72.096313 142.148743,71.347900 
	C142.372147,71.558525 142.523254,72.090866 142.503174,72.786453 
z"/>
<path fill="#F2F8FC" opacity="1.000000" stroke="none" 
	d="
M87.191986,130.460342 
	C87.467964,130.226151 87.898102,130.171234 88.645424,130.199280 
	C88.423790,130.401352 87.884972,130.520493 87.191986,130.460342 
z"/>
<path fill="#F2F8FC" opacity="1.000000" stroke="none" 
	d="
M149.083038,76.973480 
	C149.318115,77.226555 149.507568,77.780045 149.643860,78.625946 
	C149.406281,78.370201 149.221832,77.822044 149.083038,76.973480 
z"/>
<path fill="#F2F8FC" opacity="1.000000" stroke="none" 
	d="
M142.023300,68.653687 
	C141.758514,68.471466 141.486847,68.023216 141.249573,67.307327 
	C141.528091,67.489006 141.772263,67.938332 142.023300,68.653687 
z"/>
<path fill="#F2F8FC" opacity="1.000000" stroke="none" 
	d="
M149.667297,81.024734 
	C150.038177,81.132217 150.148788,81.269043 150.322327,81.661934 
	C149.869553,81.809753 149.353821,81.701508 148.838089,81.593254 
	C149.027725,81.413521 149.217377,81.233795 149.667297,81.024734 
z"/>
<path fill="#F2F8FC" opacity="1.000000" stroke="none" 
	d="
M139.237915,117.832169 
	C139.164551,117.443230 139.340637,116.894348 139.760666,116.182693 
	C139.832184,116.570694 139.659775,117.121460 139.237915,117.832169 
z"/>
<path fill="#F2F8FC" opacity="1.000000" stroke="none" 
	d="
M145.973785,56.483299 
	C146.312958,56.585762 146.701523,56.976128 147.139862,57.649452 
	C146.800842,57.545341 146.412003,57.158272 145.973785,56.483299 
z"/>
<path fill="#F2F8FC" opacity="1.000000" stroke="none" 
	d="
M96.286865,162.525604 
	C96.340202,162.285645 96.751099,162.365250 96.889114,162.522217 
	C96.762596,162.707993 96.498055,162.736771 96.286865,162.525604 
z"/>
<path fill="#F2F8FC" opacity="1.000000" stroke="none" 
	d="
M84.038025,142.231232 
	C84.247864,142.141998 84.442223,142.313187 84.590256,142.758255 
	C84.376778,142.833984 84.202988,142.653839 84.038025,142.231232 
z"/>
<path fill="#F2F8FC" opacity="1.000000" stroke="none" 
	d="
M73.467308,165.449280 
	C73.523254,165.415802 73.411362,165.482758 73.467308,165.449280 
z"/>
<path fill="#F2F8FC" opacity="1.000000" stroke="none" 
	d="
M146.192856,132.941208 
	C146.081696,132.699615 146.260605,132.472122 146.750549,132.310028 
	C146.845535,132.564651 146.652649,132.757935 146.192856,132.941208 
z"/>
<path fill="#F2F8FC" opacity="1.000000" stroke="none" 
	d="
M94.118187,130.423004 
	C94.025185,130.293915 94.499977,130.159241 94.737564,130.225891 
	C94.975151,130.292557 94.645966,130.614853 94.645966,130.614853 
	C94.645966,130.614853 94.211189,130.552078 94.118187,130.423004 
z"/>
<path fill="#F2F8FC" opacity="1.000000" stroke="none" 
	d="
M126.017860,128.887085 
	C125.905785,128.579178 126.138474,128.355118 126.726639,128.249207 
	C126.815056,128.552490 126.575218,128.753662 126.017860,128.887085 
z"/>
<path fill="#F2F8FC" opacity="1.000000" stroke="none" 
	d="
M145.807800,122.110710 
	C145.860901,122.301315 145.686417,122.590759 145.256790,122.938538 
	C145.102371,122.666725 145.295227,122.404282 145.807800,122.110710 
z"/>
<path fill="#F2F8FC" opacity="1.000000" stroke="none" 
	d="
M140.495575,114.838089 
	C140.250198,114.643265 140.340454,114.375214 140.785797,114.046043 
	C140.965363,114.226227 140.862152,114.486206 140.495575,114.838089 
z"/>
<path fill="#F2F8FC" opacity="1.000000" stroke="none" 
	d="
M145.116333,55.466820 
	C145.337616,55.260468 145.565323,55.375439 145.752319,55.850220 
	C145.557327,55.963291 145.361038,55.822662 145.116333,55.466820 
z"/>
<path fill="#FEFEFE" opacity="1.000000" stroke="none" 
	d="
M18.562981,80.171219 
	C18.836613,80.388557 18.736712,80.660324 18.228466,80.961655 
	C18.065868,80.772095 18.188976,80.516899 18.562981,80.171219 
z"/>
<path fill="#F6FAFC" opacity="1.000000" stroke="none" 
	d="
M72.153069,87.911148 
	C73.564659,83.447662 74.548523,79.209167 76.279411,75.301582 
	C76.953842,73.779030 79.310913,73.001823 80.901558,71.885117 
	C81.917740,73.731735 84.140564,75.895248 83.752441,77.373062 
	C81.398750,86.335251 78.567490,95.181282 75.574455,103.956520 
	C75.114769,105.304260 72.999107,106.885689 71.638695,106.895561 
	C70.364250,106.904808 68.459747,105.220131 67.907944,103.848320 
	C66.196198,99.592758 64.996117,95.131371 62.535854,90.544495 
	C61.317665,94.493149 60.335503,98.537971 58.782097,102.350029 
	C58.000938,104.266983 56.181873,105.760994 54.832161,107.446266 
	C53.327358,105.922218 51.132519,104.660103 50.437332,102.828720 
	C47.445015,94.945839 44.643303,86.966011 42.363949,78.855171 
	C41.824791,76.936623 42.921585,73.171570 44.414497,72.354378 
	C47.626450,70.596214 48.909588,73.773170 49.810730,76.346657 
	C51.339104,80.711388 52.772392,85.109406 54.462151,90.137688 
	C56.198944,84.820526 57.561054,80.077042 59.351707,75.501259 
	C59.924046,74.038719 61.867153,71.871376 62.767624,72.055733 
	C64.297829,72.369011 66.066849,74.046799 66.728912,75.584541 
	C68.554230,79.824135 69.857864,84.288284 71.381065,88.659004 
	C71.391106,88.687798 71.615974,88.690987 71.690765,88.637085 
	C71.822166,88.542419 71.914993,88.394218 72.153069,87.911148 
z"/>
<path fill="#F9FCFD" opacity="1.000000" stroke="none" 
	d="
M108.024673,102.063080 
	C102.256859,108.319107 94.752342,106.939568 87.584373,106.403633 
	C86.572670,106.327988 84.997414,103.801453 84.956749,102.373085 
	C84.720772,94.082191 84.745003,85.776779 84.995651,77.485794 
	C85.039955,76.020370 86.248123,73.753731 87.461327,73.296494 
	C95.037956,70.440994 105.541435,73.814774 110.573532,80.921654 
	C110.954773,82.300713 111.491966,83.141495 112.029160,83.982285 
	C112.029160,83.982285 111.993332,83.988731 112.033417,84.290558 
	C112.712204,85.628914 113.350899,86.665451 113.720284,87.995255 
	C113.236969,89.870071 113.022972,91.451622 112.583191,93.255592 
	C112.234940,94.307304 112.112465,95.136597 111.972549,96.313095 
	C111.956078,97.120529 111.957047,97.580757 111.987015,98.033195 
	C112.015999,98.025406 112.047089,97.974030 112.047089,97.974030 
	C111.514511,98.525856 110.981941,99.077682 109.872864,99.857498 
	C108.872467,100.744690 108.448570,101.403885 108.024673,102.063080 
M104.271614,94.342125 
	C105.638504,94.834633 107.005394,95.327148 108.986320,96.040901 
	C108.077957,93.738014 107.512680,92.304916 106.883156,90.131462 
	C104.904808,88.635529 102.926468,87.139587 100.723770,85.339691 
	C100.536728,85.160217 100.316399,85.043617 99.495331,84.892487 
	C99.333046,84.790024 99.170769,84.687561 98.837799,83.980164 
	C98.115295,83.696243 97.392792,83.412323 95.989914,82.983170 
	C94.843460,82.456390 93.696999,81.929611 92.380524,81.324715 
	C92.380524,87.384171 92.380524,93.062172 92.380524,98.925819 
	C96.423729,97.108192 100.154968,95.430809 104.271614,94.342125 
z"/>
<path fill="#F4F9FC" opacity="1.000000" stroke="none" 
	d="
M113.989594,87.701996 
	C113.350899,86.665451 112.712204,85.628914 112.046616,84.277184 
	C112.598061,82.544777 113.344406,81.170822 113.722588,79.702072 
	C114.766945,75.646111 117.001312,72.801315 121.265305,72.021187 
	C126.163635,71.125000 130.606522,72.315872 133.991699,75.968620 
	C134.801727,76.842659 134.917847,79.444237 134.206223,80.333328 
	C133.520065,81.190605 131.283752,81.226234 129.851898,80.959679 
	C128.127640,80.638687 126.560272,79.134705 124.875412,79.041779 
	C123.318115,78.955879 121.695343,80.057335 120.101402,80.635872 
	C121.114479,82.111244 121.824921,84.044411 123.208633,84.959145 
	C125.525330,86.490677 128.475998,87.063019 130.793243,88.593956 
	C135.243271,91.533936 136.534195,96.905594 134.409088,101.847183 
	C132.584274,106.090508 127.883842,108.519569 122.873306,107.808578 
	C116.635834,106.923485 112.751823,103.618301 112.124443,98.350723 
	C112.047089,97.974030 112.015999,98.025406 112.364059,98.016144 
	C114.517067,98.084946 116.374756,97.927322 118.110306,98.315605 
	C119.500389,98.626579 120.711998,99.668343 122.055992,100.266273 
	C124.841507,101.505531 127.724968,101.331306 128.611343,98.244461 
	C128.909225,97.207062 126.275597,94.925354 124.588272,93.805237 
	C121.198624,91.555054 117.538246,89.712669 113.989594,87.701996 
z"/>
<path fill="#F4F9FC" opacity="1.000000" stroke="none" 
	d="
M112.022438,83.652893 
	C111.491966,83.141495 110.954773,82.300713 110.656166,81.249435 
	C111.268410,81.800468 111.642059,82.561989 112.022438,83.652893 
z"/>
<path fill="#F4F9FC" opacity="1.000000" stroke="none" 
	d="
M108.300110,101.954865 
	C108.448570,101.403885 108.872467,100.744690 109.615250,100.034531 
	C109.481262,100.604591 109.028404,101.225616 108.300110,101.954865 
z"/>
<path fill="#F2F8FC" opacity="1.000000" stroke="none" 
	d="
M39.532448,119.762680 
	C39.079422,119.536438 38.561539,119.048988 38.026497,118.268478 
	C38.495422,118.484093 38.981506,118.992775 39.532448,119.762680 
z"/>
<path fill="#F2F8FC" opacity="1.000000" stroke="none" 
	d="
M34.801811,106.647156 
	C34.596687,106.433723 34.461716,105.903221 34.498955,105.215256 
	C34.738094,105.481880 34.805027,105.905983 34.801811,106.647156 
z"/>
<path fill="#F2F8FC" opacity="1.000000" stroke="none" 
	d="
M35.203529,68.802780 
	C35.111122,68.461098 35.226433,67.933983 35.546066,67.223480 
	C35.637344,67.565849 35.524296,68.091591 35.203529,68.802780 
z"/>
<path fill="#F2F8FC" opacity="1.000000" stroke="none" 
	d="
M34.865143,70.744629 
	C34.662052,70.817970 34.506027,70.661591 34.401489,70.476181 
	C34.372719,70.425156 34.497715,70.287445 34.696617,70.101196 
	C34.841084,70.012886 34.931633,70.503967 34.865143,70.744629 
z"/>
<path fill="#F2F8FC" opacity="1.000000" stroke="none" 
	d="
M34.734459,73.733459 
	C34.335316,73.768242 34.263504,73.515137 34.573570,73.117485 
	C34.702259,73.030243 34.808617,73.502869 34.734459,73.733459 
z"/>
<path fill="#F2F8FC" opacity="1.000000" stroke="none" 
	d="
M29.060776,98.645538 
	C29.026358,103.744980 29.012585,108.489960 28.959736,113.716888 
	C28.708193,110.152466 28.598682,106.096954 28.240635,102.063499 
	C28.056416,99.988228 27.429354,97.952255 26.903324,95.491074 
	C29.697172,94.637802 30.067842,95.982697 29.060776,98.645538 
z"/>
<path fill="#F2F8FC" opacity="1.000000" stroke="none" 
	d="
M28.695221,65.104019 
	C28.844286,69.586891 28.789869,74.446594 28.484947,79.628036 
	C28.320206,75.126801 28.405972,70.303825 28.695221,65.104019 
z"/>
<path fill="#F2F8FC" opacity="1.000000" stroke="none" 
	d="
M31.139160,121.300552 
	C32.348629,121.763390 33.656803,122.541313 34.963516,123.706558 
	C33.720661,123.267807 32.479263,122.441727 31.139160,121.300552 
z"/>
<path fill="#F2F8FC" opacity="1.000000" stroke="none" 
	d="
M24.567715,85.857285 
	C25.281898,86.368896 25.689791,86.981918 26.333014,87.948616 
	C24.827965,87.948616 23.649473,87.948616 22.089767,87.914688 
	C22.559511,87.240074 23.410467,86.599388 24.567715,85.857285 
z"/>
<path fill="#FEFFFF" opacity="1.000000" stroke="none" 
	d="
M27.483345,48.033459 
	C26.876768,47.443390 26.561024,46.796936 26.245279,46.150482 
	C26.917601,46.189381 27.589920,46.228275 28.565891,46.518463 
	C28.504419,47.172199 28.139297,47.574635 27.483345,48.033459 
z"/>
<path fill="#FEFFFF" opacity="1.000000" stroke="none" 
	d="
M35.270897,44.755707 
	C35.221111,44.383499 35.461575,44.300198 35.856346,44.576122 
	C35.946331,44.695988 35.496826,44.805252 35.270897,44.755707 
z"/>
<path fill="#FEFFFF" opacity="1.000000" stroke="none" 
	d="
M24.224709,50.888321 
	C24.095055,50.662086 24.273811,50.410618 24.736250,50.103470 
	C24.914339,50.344585 24.752066,50.616352 24.224709,50.888321 
z"/>
<path fill="#FEFFFF" opacity="1.000000" stroke="none" 
	d="
M23.251434,51.947216 
	C23.100214,51.714996 23.274311,51.443604 23.755028,51.113083 
	C23.808504,51.279934 23.646873,51.564632 23.251434,51.947216 
z"/>
<path fill="#0DAAFC" opacity="1.000000" stroke="none" 
	d="
M99.008484,84.585091 
	C99.170769,84.687561 99.333046,84.790024 99.870300,85.119873 
	C100.415260,85.598511 100.649544,85.697304 100.948120,85.643646 
	C102.926468,87.139587 104.904808,88.635529 106.654503,90.664154 
	C105.579308,92.049042 104.732758,92.901237 103.886215,93.753433 
	C100.154968,95.430809 96.423729,97.108192 92.380524,98.925819 
	C92.380524,93.062172 92.380524,87.384171 92.380524,81.324715 
	C93.696999,81.929611 94.843460,82.456390 96.492775,83.289230 
	C97.666588,83.925224 98.337532,84.255157 99.008484,84.585091 
z"/>
<path fill="#0CAAFC" opacity="1.000000" stroke="none" 
	d="
M113.720284,87.995255 
	C117.538246,89.712669 121.198624,91.555054 124.588272,93.805237 
	C126.275597,94.925354 128.909225,97.207062 128.611343,98.244461 
	C127.724968,101.331306 124.841507,101.505531 122.055992,100.266273 
	C120.711998,99.668343 119.500389,98.626579 118.110306,98.315605 
	C116.374756,97.927322 114.517067,98.084946 112.335068,98.023941 
	C111.957047,97.580757 111.956078,97.120529 112.217117,96.103447 
	C112.589081,94.708786 112.699028,93.870987 112.808975,93.033180 
	C113.022972,91.451622 113.236969,89.870071 113.720284,87.995255 
z"/>
<path fill="#F4F9FC" opacity="1.000000" stroke="none" 
	d="
M104.078918,94.047775 
	C104.732758,92.901237 105.579308,92.049042 106.686630,91.034332 
	C107.512680,92.304916 108.077957,93.738014 108.986320,96.040901 
	C107.005394,95.327148 105.638504,94.834633 104.078918,94.047775 
z"/>
<path fill="#F4F9FC" opacity="1.000000" stroke="none" 
	d="
M112.583191,93.255592 
	C112.699028,93.870987 112.589081,94.708786 112.234566,95.756241 
	C112.112465,95.136597 112.234940,94.307304 112.583191,93.255592 
z"/>
<path fill="#F4F9FC" opacity="1.000000" stroke="none" 
	d="
M98.923141,84.282623 
	C98.337532,84.255157 97.666588,83.925224 96.832962,83.361847 
	C97.392792,83.412323 98.115295,83.696243 98.923141,84.282623 
z"/>
<path fill="#F4F9FC" opacity="1.000000" stroke="none" 
	d="
M100.835945,85.491669 
	C100.649544,85.697304 100.415260,85.598511 100.154037,85.168579 
	C100.316399,85.043617 100.536728,85.160217 100.835945,85.491669 
z"/>
</svg>